<?xml version="1.0" encoding="UTF-8" standalone="no"?>
<svg
   xmlns:dc="http://purl.org/dc/elements/1.1/"
   xmlns:cc="http://creativecommons.org/ns#"
   xmlns:rdf="http://www.w3.org/1999/02/22-rdf-syntax-ns#"
   xmlns:svg="http://www.w3.org/2000/svg"
   xmlns="http://www.w3.org/2000/svg"
   xmlns:sodipodi="http://sodipodi.sourceforge.net/DTD/sodipodi-0.dtd"
   xmlns:inkscape="http://www.inkscape.org/namespaces/inkscape"
   version="1.1"
   width="8"
   height="8"
   data-icon="trash"
   viewBox="0 0 8 8"
   id="svg4"
   sodipodi:docname="trash.svg"
   inkscape:version="0.92.5 (2060ec1f9f, 2020-04-08)">
  <metadata
     id="metadata10">
    <rdf:RDF>
      <cc:Work
         rdf:about="">
        <dc:format>image/svg+xml</dc:format>
        <dc:type
           rdf:resource="http://purl.org/dc/dcmitype/StillImage" />
      </cc:Work>
    </rdf:RDF>
  </metadata>
  <defs
     id="defs8" />
  <sodipodi:namedview
     pagecolor="#ffffff"
     bordercolor="#666666"
     borderopacity="1"
     objecttolerance="10"
     gridtolerance="10"
     guidetolerance="10"
     inkscape:pageopacity="0"
     inkscape:pageshadow="2"
     inkscape:window-width="1113"
     inkscape:window-height="680"
     id="namedview6"
     showgrid="false"
     inkscape:zoom="29.5"
     inkscape:cx="4"
     inkscape:cy="4"
     inkscape:window-x="0"
     inkscape:window-y="31"
     inkscape:window-maximized="0"
     inkscape:current-layer="svg4" />
  <path
     d="M3 0c-.55 0-1 .45-1 1h-1c-.55 0-1 .45-1 1h7c0-.55-.45-1-1-1h-1c0-.55-.45-1-1-1h-1zm-2 3v4.813c0 .11.077.188.188.188h4.625c.11 0 .188-.077.188-.188v-4.813h-1v3.5c0 .28-.22.5-.5.5s-.5-.22-.5-.5v-3.5h-1v3.5c0 .28-.22.5-.5.5s-.5-.22-.5-.5v-3.5h-1z"
     id="path2"
     style="fill:#838383;fill-opacity:1" />
</svg>
