<?xml version="1.0" encoding="UTF-8" standalone="no"?>
<svg
   xmlns:dc="http://purl.org/dc/elements/1.1/"
   xmlns:cc="http://creativecommons.org/ns#"
   xmlns:rdf="http://www.w3.org/1999/02/22-rdf-syntax-ns#"
   xmlns:svg="http://www.w3.org/2000/svg"
   xmlns="http://www.w3.org/2000/svg"
   version="1.1"
   width="125"
   height="125"
   id="svg4038">
  <defs
     id="defs4040" />
  <metadata
     id="metadata4043">
    <rdf:RDF>
      <cc:Work
         rdf:about="">
        <dc:format>image/svg+xml</dc:format>
        <dc:type
           rdf:resource="http://purl.org/dc/dcmitype/StillImage" />
        <dc:title></dc:title>
      </cc:Work>
    </rdf:RDF>
  </metadata>
  <g
     transform="matrix(0.8,0,0,1.0309084,2.9336328,-482.98747)"
     id="layer1">
    <g
       transform="matrix(0.03543307,0,0,0.03543307,-426.85368,121.58083)"
       id="g3123">
      <g
         style="fill:#999999"
         transform="matrix(1.3152153,0,0,0.89767688,-3745.89,1632.0984)"
         id="g71">
        <g
           style="fill:#999999"
           id="id6">
          <path
             d="m 13600,9500 1601,3401 -3201,0 1600,-3401 z m -1600,0 0,0 z m 3201,3401 0,0 z"
             id="path74"
             style="fill:#999999;stroke:none" />
        </g>
      </g>
      <g
         style="fill:#ffffff"
         transform="matrix(0.54793716,0,0,0.52564978,5993.0739,6417.12)"
         id="g76">
        <g
           style="fill:#ffffff"
           id="id7">
          <path
             d="m 14850,10299 1550,2602 -3100,0 1550,-2602 z m -1550,0 0,0 z m 3100,2602 0,0 z"
             id="path79"
             style="fill:#ffffff;stroke:none" />
        </g>
      </g>
      <path
         id="path4146"
         d="m 14521.834,10719.021 -653.984,-899.0023 -168.167,159.5004 280.279,406.0009 z"
         style="fill:#999999;fill-rule:evenodd;stroke:#999999;stroke-width:9.32303613;stroke-linecap:butt;stroke-linejoin:miter;stroke-opacity:1;fill-opacity:1;stroke-miterlimit:4;stroke-dasharray:none" />
      <path
         id="path4146-3"
         d="m 13789.219,10724.133 653.984,-899.0024 168.167,159.5004 -280.279,406.001 z"
         style="fill:#999999;fill-opacity:1;fill-rule:evenodd;stroke:#999999;stroke-width:9.32303613;stroke-linecap:butt;stroke-linejoin:miter;stroke-opacity:1;stroke-miterlimit:4;stroke-dasharray:none" />
    </g>
  </g>
</svg>
