<?xml version="1.0" encoding="UTF-8" standalone="no"?>
<svg
   xmlns:dc="http://purl.org/dc/elements/1.1/"
   xmlns:cc="http://creativecommons.org/ns#"
   xmlns:rdf="http://www.w3.org/1999/02/22-rdf-syntax-ns#"
   xmlns:svg="http://www.w3.org/2000/svg"
   xmlns="http://www.w3.org/2000/svg"
   id="svg4038"
   height="125"
   width="125"
   version="1.1">
  <defs
     id="defs4040" />
  <metadata
     id="metadata4043">
    <rdf:RDF>
      <cc:Work
         rdf:about="">
        <dc:format>image/svg+xml</dc:format>
        <dc:type
           rdf:resource="http://purl.org/dc/dcmitype/StillImage" />
        <dc:title></dc:title>
      </cc:Work>
    </rdf:RDF>
  </metadata>
  <g
     id="layer1"
     transform="matrix(0.8,0,0,1.0309084,2.9336328,-482.98747)">
    <g
       id="g3123"
       transform="matrix(0.03543307,0,0,0.03543307,-426.85368,121.58083)">
      <g
         id="g71"
         transform="matrix(1.3152153,0,0,0.89767688,-3745.89,1632.0984)"
         style="fill:#000000">
        <g
           id="id6"
           style="fill:#000000">
          <path
             style="fill:#000000;stroke:none"
             id="path74"
             d="m 13600,9500 1601,3401 -3201,0 1600,-3401 z m -1600,0 0,0 z m 3201,3401 0,0 z" />
        </g>
      </g>
      <g
         id="g76"
         transform="matrix(0.54793716,0,0,0.52564978,5993.0739,6417.12)"
         style="fill:#ffffff">
        <g
           id="id7"
           style="fill:#ffffff">
          <path
             style="fill:#ffffff;stroke:none"
             id="path79"
             d="m 14850,10299 1550,2602 -3100,0 1550,-2602 z m -1550,0 0,0 z m 3100,2602 0,0 z" />
        </g>
      </g>
      <path
         style="fill:#000000;fill-rule:evenodd;stroke:#000000;stroke-width:9.32303613;stroke-linecap:butt;stroke-linejoin:miter;stroke-opacity:1;fill-opacity:1;stroke-miterlimit:4;stroke-dasharray:none"
         d="m 14521.834,10719.021 -653.984,-899.0023 -168.167,159.5004 280.279,406.0009 z"
         id="path4146" />
      <path
         style="fill:#000000;fill-opacity:1;fill-rule:evenodd;stroke:#000000;stroke-width:9.32303613;stroke-linecap:butt;stroke-linejoin:miter;stroke-opacity:1;stroke-miterlimit:4;stroke-dasharray:none"
         d="m 13789.219,10724.133 653.984,-899.0024 168.167,159.5004 -280.279,406.001 z"
         id="path4146-3" />
    </g>
  </g>
  <rect
     y="54.124245"
     x="54.897964"
     height="70.776939"
     width="70.288818"
     id="rect4138"
     style="fill:#000000;fill-opacity:1;fill-rule:evenodd;stroke:#000000;stroke-width:0.06920914px;stroke-linecap:butt;stroke-linejoin:miter;stroke-opacity:1" />
  <path
     id="path4160"
     d="m 59.778493,89.350215 61.503997,0"
     style="fill:none;fill-opacity:1;fill-rule:evenodd;stroke:#ffffff;stroke-width:10.84215832;stroke-linecap:butt;stroke-linejoin:miter;stroke-miterlimit:4;stroke-dasharray:none;stroke-opacity:1" />
  <path
     id="path4160-6"
     d="m 91.018623,120.80739 0,-61.503973"
     style="fill:none;fill-opacity:1;fill-rule:evenodd;stroke:#ffffff;stroke-width:10.84215832;stroke-linecap:butt;stroke-linejoin:miter;stroke-miterlimit:4;stroke-dasharray:none;stroke-opacity:1" />
</svg>
