<?xml version="1.0" encoding="UTF-8" standalone="no"?>
<!-- Created with Inkscape (http://www.inkscape.org/) -->

<svg
   xmlns:dc="http://purl.org/dc/elements/1.1/"
   xmlns:cc="http://creativecommons.org/ns#"
   xmlns:rdf="http://www.w3.org/1999/02/22-rdf-syntax-ns#"
   xmlns:svg="http://www.w3.org/2000/svg"
   xmlns="http://www.w3.org/2000/svg"
   xmlns:sodipodi="http://sodipodi.sourceforge.net/DTD/sodipodi-0.dtd"
   xmlns:inkscape="http://www.inkscape.org/namespaces/inkscape"
   width="359.43158"
   height="249.96527"
   id="svg2307"
   sodipodi:version="0.32"
   version="1.0"
   sodipodi:docname="carBike.svg"
   inkscape:version="0.92.5 (2060ec1f9f, 2020-04-08)">
  <defs
     id="defs2309" />
  <sodipodi:namedview
     id="base"
     pagecolor="#ffffff"
     bordercolor="#666666"
     borderopacity="1.0"
     gridtolerance="10000"
     guidetolerance="10"
     objecttolerance="10"
     width="310px"
     height="260px"
     showgrid="false"
     inkscape:zoom="1.2836708"
     inkscape:cx="359.47117"
     inkscape:cy="181.8883"
     inkscape:window-width="1162"
     inkscape:window-height="705"
     inkscape:window-x="480"
     inkscape:window-y="86"
     inkscape:window-maximized="0"
     inkscape:current-layer="layer1"
     fit-margin-top="0"
     fit-margin-left="0"
     fit-margin-right="0"
     fit-margin-bottom="0" />
  <metadata
     id="metadata2312">
    <rdf:RDF>
      <cc:Work
         rdf:about="">
        <dc:format>image/svg+xml</dc:format>
        <dc:type
           rdf:resource="http://purl.org/dc/dcmitype/StillImage" />
        <dc:title></dc:title>
      </cc:Work>
    </rdf:RDF>
  </metadata>
  <g
     id="layer1"
     transform="translate(-2.558215,-209.60081)"
     style="fill:#000000;fill-opacity:1;stroke:none">
    <path
       id="path9347"
       style="fill:#000000;fill-opacity:0.85;fill-rule:evenodd;stroke:none;stroke-width:1.2229712;stroke-linecap:butt;stroke-linejoin:miter;stroke-miterlimit:4;stroke-opacity:1"
       d="m -53.582954,-415.35856 c -40.979475,4.22092 -45.145264,50.69684 -59.185116,85.85139 -19.18907,5.29042 -27.54259,19.22853 -27.98516,30.66415 v 86.34597 h 25.30617 v 29.05676 c -1.22633,27.69243 44.157018,28.76272 45.171926,-0.28851 l -0.588621,-43.01996 82.642399,1.11531 c 1.046549,-93.74647 2.032085,-76.69525 0.562209,-189.72511 z m 3.008714,22.87447 c 1.148077,-0.006 2.358386,0.0326 3.585728,0.0824 l 59.535442,0.18547 c -0.206077,-23.14234 0,0 -0.10304,61.47256 l -98.75176,-0.12364 c 7.936283,-16.63995 14.578279,-60.96907 35.73363,-61.61679 z m -41.462551,87.45878 c 11.803644,2e-5 21.39072,9.54587 21.39072,21.34951 0,11.80363 -9.587076,21.39072 -21.39072,21.39072 -11.803639,0 -21.390719,-9.58708 -21.390719,-21.39072 0,-11.80366 9.58708,-21.34951 21.390719,-21.34951 z"
       transform="matrix(0.9797897,0,0,0.9877946,140.46678,619.88975)"
       sodipodi:nodetypes="ccccccccccccccccccsscc"
       inkscape:connector-curvature="0" />
    <path
       d="m 216.19881,218.32284 c 5.18137,0 26.29063,2.05342 28.78535,21.91183 0.30156,0.20794 -0.35638,9.17542 -0.35638,9.17542 h -4.71532 l -21.21892,-2.59927 -0.27414,19.8844 22.78154,15.75157 -3.15267,11.77468 -54.5551,-36.70167 -0.27415,-17.83098 c 0,0 4.33151,-21.26201 31.77355,-21.26201 0,-0.10397 0.35639,-0.10397 1.20624,-0.10397 z m -42.67296,54.37058 c 2.76888,0 14.49073,-5.58232 18.30137,-3.42492 0.35638,0 55.29529,38.0013 55.29529,38.0013 h 31.22524 c 0,0 12.85747,-1.50758 12.85747,11.98262 0,0 1.12399,12.63245 -11.37707,12.63245 h -45.12447 c -9.26614,-6.36821 -18.61452,-12.39851 -27.88067,-18.89668 l -29.16915,21.80786 44.54876,18.68874 c 8.16955,3.66497 10.08858,12.0866 6.11345,19.00065 l -38.6272,63.5781 c 0,0 -8.41629,8.86351 -18.14848,2.26137 -0.27414,-0.31191 -11.76087,-6.36821 -5.56516,-17.25915 0.3838,0 24.64574,-42.86193 24.64574,-42.86193 2.02868,-3.24908 -11.88394,-12.91301 -16.79116,-14.96643 -10.19823,-33.89446 -4.74512,-22.20922 -0.30396,-90.54398 z m 128.4259,74.96901 c 33.25393,0 60.03803,25.03095 60.03803,55.70232 0,30.5414 -26.7841,55.15647 -60.03803,55.15647 -33.14429,0 -60.39441,-24.61507 -60.39441,-55.15647 0,-30.67137 27.25012,-55.70232 60.39441,-55.70232 z m 0,16.40138 c -23.41209,0 -42.60233,17.59705 -42.60233,39.30094 0,21.57392 19.19024,38.85906 42.60233,38.85906 23.4395,0 42.24593,-17.38911 42.24593,-38.85906 0,-21.70389 -18.80643,-39.30094 -42.24593,-39.30094 z"
       id="path861"
       inkscape:connector-curvature="0"
       style="fill:#000000;stroke:none;stroke-width:0.02669419"
       sodipodi:nodetypes="sccccccccccscccccscccccccccccssssssssss" />
    <rect
       style="fill:#000000;fill-rule:evenodd;stroke:#000000;stroke-width:1px;stroke-linecap:round;stroke-linejoin:round;stroke-opacity:1"
       id="rect2089"
       width="15.943027"
       height="103.28691"
       x="130.79224"
       y="385.87726"
       transform="rotate(-20.82857)" />
  </g>
</svg>
