<?xml version="1.0" encoding="UTF-8" standalone="no"?>
<svg
   xmlns:dc="http://purl.org/dc/elements/1.1/"
   xmlns:cc="http://creativecommons.org/ns#"
   xmlns:rdf="http://www.w3.org/1999/02/22-rdf-syntax-ns#"
   xmlns:svg="http://www.w3.org/2000/svg"
   xmlns="http://www.w3.org/2000/svg"
   id="svg2"
   viewBox="0 0 16 16"
   height="16"
   width="16"
   version="1.1">
  <metadata
     id="metadata8">
    <rdf:RDF>
      <cc:Work
         rdf:about="">
        <dc:format>image/svg+xml</dc:format>
        <dc:type
           rdf:resource="http://purl.org/dc/dcmitype/StillImage" />
        <dc:title></dc:title>
      </cc:Work>
    </rdf:RDF>
  </metadata>
  <defs
     id="defs6" />
  <rect
     style="fill:none;stroke:none;visibility:hidden"
     id="canvas"
     y="0"
     x="0"
     height="16"
     width="16" />
  <path
     transform="translate(1,1)"
     style="fill:#734a08;fill-opacity:1"
     id="drinking-water"
     d="m 1,6 1.5,8 5,0 L 9,6 z M 2.18,7 7.81,7 7.44,9 2.55,9 M 4,5 C 4,3 5,2 7,2 L 8,2 8,1 7,1 C 6,1 6,0 7,0 l 3,0 c 1,0 1,1 0,1 l -1,0 0,1 4,0 0,1.5 -6,0 C 5.91526,3.49111 5.5,3.9824765 5.5,5 z" />
  <rect
     y="7.7373958"
     x="8.234602"
     height="8.2626038"
     width="7.7653975"
     id="rect4138"
     style="fill:#000000;fill-opacity:1;fill-rule:evenodd;stroke:#000000;stroke-width:0.00785987px;stroke-linecap:butt;stroke-linejoin:miter;stroke-opacity:1" />
  <path
     id="path4160"
     d="M 8.7737966,11.849728 H 15.56866"
     style="fill:none;fill-opacity:1;fill-rule:evenodd;stroke:#ffffff;stroke-width:1.23130894;stroke-linecap:butt;stroke-linejoin:miter;stroke-miterlimit:4;stroke-dasharray:none;stroke-opacity:1" />
  <path
     id="path4160-6"
     d="M 12.225157,15.522085 V 8.3420205"
     style="fill:none;fill-opacity:1;fill-rule:evenodd;stroke:#ffffff;stroke-width:1.23130894;stroke-linecap:butt;stroke-linejoin:miter;stroke-miterlimit:4;stroke-dasharray:none;stroke-opacity:1" />
</svg>
