<?xml version="1.0" encoding="UTF-8" standalone="no"?>
<svg
   width="300"
   height="390"
   version="1.1"
   id="svg4"
   xmlns="http://www.w3.org/2000/svg"
   xmlns:svg="http://www.w3.org/2000/svg">
  <defs
     id="defs8" />
  <path
     d="m 140.785,129.67835 c 0,12.12785 -13.97,25.11146 -32.084,25.11146 v 204.71416 c 0,29.05812 -50.081,29.05812 -50.081,0 V 154.78981 c -17.64,0 -32.993,-10.74296 -32.993,-26.84118 V 15.292688 c 0,-9.8065122 24.679864,-10.1682506 23.92,0.378846 V 98.952993 H 73.296999 V 15.012697 c 0,-9.411048 22.75,-9.7899029 22.75,0.378855 V 98.952993 H 117.297 V 15.012697 c 0,-9.312184 23.497,-9.6910388 23.497,0.378855 z M 274.373,41.475826 V 359.40432 c 0,28.41985 -50.177,27.99908 -50.177,0 V 233.25779 h -42.719 l 26,-191.781964 c 6.01779,-44.3885956 66.896,-44.6430366 66.896,0 z"
     id="path2"
     style="fill:#838383;fill-opacity:1;stroke-width:0.889332" />
</svg>
