<?xml version="1.0" encoding="UTF-8" standalone="no"?>
<svg
   xmlns:dc="http://purl.org/dc/elements/1.1/"
   xmlns:cc="http://creativecommons.org/ns#"
   xmlns:rdf="http://www.w3.org/1999/02/22-rdf-syntax-ns#"
   xmlns:svg="http://www.w3.org/2000/svg"
   xmlns="http://www.w3.org/2000/svg"
   id="svg1594"
   version="1.1"
   viewBox="0 0 35.476055 50.844917"
   height="50.844917mm"
   width="35.476055mm">
  <defs
     id="defs1588" />
  <metadata
     id="metadata1591">
    <rdf:RDF>
      <cc:Work
         rdf:about="">
        <dc:format>image/svg+xml</dc:format>
        <dc:type
           rdf:resource="http://purl.org/dc/dcmitype/StillImage" />
        <dc:title></dc:title>
      </cc:Work>
    </rdf:RDF>
  </metadata>
  <g
     transform="translate(-69.196495,-84.101352)"
     id="layer1">
    <path
       id="path1000"
       d="m 78.978132,121.7761 a 51.372844,51.372844 0 0 1 4.006442,5.90918 c 1.021858,1.93773 1.447799,3.25155 2.194695,5.58622 0.457936,1.28982 0.871878,1.67477 1.761754,1.67477 0.969865,0 1.409804,-0.65491 1.749756,-1.66777 0.705902,-2.20469 1.259825,-3.88746 2.133703,-5.47724 1.714761,-3.06957 3.845464,-5.79719 5.939173,-8.41882 0.56692,-0.7419 4.231405,-5.0643 5.881175,-8.47482 0,0 2.02772,-3.74648 2.02772,-8.97875 0,-4.89432 -1.99972,-8.288847 -1.99972,-8.288847 l -5.757196,1.541785 -3.496513,9.208712 -0.86488,1.26983 -0.172976,0.22997 -0.229968,0.28796 -0.403944,0.45993 -0.576919,0.57692 -3.113566,2.53665 -7.783916,4.49437 z"
       style="fill:#34a853;stroke-width:0.9998607" />
    <path
       id="path1002"
       d="m 70.944251,110.2777 c 1.899736,4.3394 5.563225,8.15387 8.04188,11.5014 l 13.165166,-15.59482 c 0,0 -1.854742,2.42566 -5.219273,2.42566 -3.747478,0 -6.775056,-2.99259 -6.775056,-6.76606 0,-2.587639 1.556783,-4.365392 1.556783,-4.365392 l -8.936755,2.394667 z"
       style="fill:#fbbc04;stroke-width:0.9998607" />
    <path
       id="path1004"
       d="m 92.298277,84.90324 c 4.37239,1.409803 8.114863,4.369391 10.378553,8.733783 L 92.155297,106.17528 c 0,0 1.556783,-1.80975 1.556783,-4.38139 0,-3.861465 -3.251547,-6.746063 -6.764058,-6.746063 -3.321537,0 -5.229271,2.421663 -5.229271,2.421663 v -7.8989 z"
       style="fill:#4285f4;stroke-width:0.9998607" />
    <path
       id="path1006"
       d="m 73.355916,90.443468 c 2.611635,-3.124565 7.206996,-6.342116 13.542113,-6.342116 3.073572,0 5.389249,0.806887 5.389249,0.806887 l -10.578526,12.56825 h -7.494956 z"
       style="fill:#1a73e8;stroke-width:0.9998607" />
    <path
       id="path1008"
       d="m 70.944251,110.2777 c 0,0 -1.747756,-3.42252 -1.747756,-8.38083 0,-4.686344 1.821746,-8.782774 4.159421,-11.453402 l 8.358835,7.034021 z"
       style="fill:#ea4335;stroke-width:0.9998607" />
  </g>
</svg>
