<?xml version="1.0" encoding="UTF-8" standalone="no"?>
<svg
   xmlns:dc="http://purl.org/dc/elements/1.1/"
   xmlns:cc="http://creativecommons.org/ns#"
   xmlns:rdf="http://www.w3.org/1999/02/22-rdf-syntax-ns#"
   xmlns:svg="http://www.w3.org/2000/svg"
   xmlns="http://www.w3.org/2000/svg"
   version="1.1"
   width="16"
   height="16"
   viewBox="0 0 16 16"
   id="svg2">
  <metadata
     id="metadata8">
    <rdf:RDF>
      <cc:Work
         rdf:about="">
        <dc:format>image/svg+xml</dc:format>
        <dc:type
           rdf:resource="http://purl.org/dc/dcmitype/StillImage" />
        <dc:title></dc:title>
      </cc:Work>
    </rdf:RDF>
  </metadata>
  <defs
     id="defs6" />
  <rect
     width="14"
     height="14"
     x="0"
     y="2"
     id="canvas"
     style="visibility:hidden;fill:none;stroke:none" />
  <path
     style="fill:#0092da;stroke-width:1.14285803"
     d="M 0.5714286,3.357142 C 0.2548572,3.357142 0,3.612 0,3.928572 V 4.5 9.071428 10.214286 10.785714 12.5 H 1.142858 V 10.785714 10.214286 H 14.85714 V 11.92858 12.5 H 15.42858 16 V 11.92858 10.214286 9.071428 6.785714 6.214286 c 0,-0.316572 -0.25486,-0.571428 -0.57142,-0.571428 -0.31658,0 -0.57144,0.254856 -0.57144,0.571428 V 6.785714 9.071428 H 1.142858 V 4.5 3.928572 C 1.142858,3.612 0.888,3.357142 0.5714286,3.357142 Z M 4,4.5 c -0.946773,0 -1.714286,0.767511 -1.714286,1.714286 0,0.946773 0.767513,1.714286 1.714286,1.714286 0.946773,0 1.714286,-0.767513 1.714286,-1.714286 C 5.714286,5.267511 4.946773,4.5 4,4.5 Z m 2.857142,1.142858 v 2.285714 h 6.857138 c 0,-1.142858 -1.184195,-2.285714 -2.2857,-2.285714 z"
     id="hotel" />
  <rect
     y="7.6820598"
     x="8.2487621"
     height="8.2626038"
     width="7.7653975"
     id="rect4138"
     style="fill:#000000;fill-opacity:1;fill-rule:evenodd;stroke:#000000;stroke-width:0.00785987px;stroke-linecap:butt;stroke-linejoin:miter;stroke-opacity:1" />
  <path
     id="path4160"
     d="M 8.7879571,11.794392 H 15.58282"
     style="fill:none;fill-opacity:1;fill-rule:evenodd;stroke:#ffffff;stroke-width:1.23130894;stroke-linecap:butt;stroke-linejoin:miter;stroke-miterlimit:4;stroke-dasharray:none;stroke-opacity:1" />
  <path
     id="path4160-6"
     d="M 12.239317,15.466749 V 8.2866843"
     style="fill:none;fill-opacity:1;fill-rule:evenodd;stroke:#ffffff;stroke-width:1.23130894;stroke-linecap:butt;stroke-linejoin:miter;stroke-miterlimit:4;stroke-dasharray:none;stroke-opacity:1" />
</svg>
