<?xml version="1.0" encoding="UTF-8" standalone="no"?>
<svg
   xmlns:dc="http://purl.org/dc/elements/1.1/"
   xmlns:cc="http://creativecommons.org/ns#"
   xmlns:rdf="http://www.w3.org/1999/02/22-rdf-syntax-ns#"
   xmlns:svg="http://www.w3.org/2000/svg"
   xmlns="http://www.w3.org/2000/svg"
   xmlns:sodipodi="http://sodipodi.sourceforge.net/DTD/sodipodi-0.dtd"
   xmlns:inkscape="http://www.inkscape.org/namespaces/inkscape"
   id="svg3637"
   height="30"
   width="20"
   version="1.1"
   sodipodi:docname="mappiteLogo.svg"
   inkscape:version="0.92.3 (2405546, 2018-03-11)">
  <sodipodi:namedview
     pagecolor="#ffffff"
     bordercolor="#666666"
     borderopacity="1"
     objecttolerance="10"
     gridtolerance="10"
     guidetolerance="10"
     inkscape:pageopacity="0"
     inkscape:pageshadow="2"
     inkscape:window-width="1920"
     inkscape:window-height="1020"
     id="namedview45"
     showgrid="false"
     inkscape:zoom="7.8666667"
     inkscape:cx="10.254237"
     inkscape:cy="15"
     inkscape:window-x="0"
     inkscape:window-y="31"
     inkscape:window-maximized="1"
     inkscape:current-layer="svg3637" />
  <defs
     id="defs3639">
    <clipPath
       id="presentation_clip_path">
      <rect
         id="rect7"
         y="0"
         x="0"
         height="19050"
         width="25400" />
    </clipPath>
  </defs>
  <metadata
     id="metadata3642">
    <rdf:RDF>
      <cc:Work
         rdf:about="">
        <dc:format>image/svg+xml</dc:format>
        <dc:type
           rdf:resource="http://purl.org/dc/dcmitype/StillImage" />
        <dc:title />
      </cc:Work>
    </rdf:RDF>
  </metadata>
  <g
     id="layer1"
     transform="matrix(1,0,0,0.9,0,-29.09091)">
    <g
       id="g113"
       transform="matrix(0.00660146,0,0,0.00687257,-49.032039,0.98978732)">
      <g
         id="g115">
        <g
           id="id1"
           clip-path="url(#presentation_clip_path)">
          <g
             id="g118">
            <g
               id="g120">
              <g
                 id="id3">
                <path
                   style="fill:#1b76c8;stroke:none"
                   id="path123"
                   d="m 8036,6451 v 0 l 1,-50 4,-49 7,-49 9,-49 12,-48 14,-48 17,-47 19,-46 21,-44 24,-44 27,-42 28,-41 30,-40 33,-37 35,-36 36,-35 38,-32 40,-30 41,-28 43,-26 44,-24 45,-21 47,-19 47,-17 48,-14 49,-11 49,-9 50,-7 50,-4 50,-1 v 0 l 50,1 50,4 50,7 49,9 49,11 48,14 47,17 47,19 45,21 44,24 43,26 41,28 40,30 38,32 36,35 35,36 33,37 30,40 28,41 27,42 24,44 21,44 19,46 17,47 14,48 12,48 9,49 7,49 4,49 1,50 h -1 l -1,50 -4,49 -7,49 -9,49 -12,48 -14,48 -17,47 -19,46 -21,44 -24,44 -27,42 -28,41 -30,40 -33,37 -35,36 -36,35 -38,32 -40,30 -41,28 -43,26 -44,24 -45,21 -47,19 -47,17 -48,14 -49,11 -49,9 -50,7 -50,4 -50,1 v -1 l -50,-1 -50,-4 -50,-7 -49,-9 -49,-11 -48,-14 -47,-17 -47,-19 -45,-21 -44,-24 -43,-26 -41,-28 -40,-30 -38,-32 -36,-35 -35,-36 -33,-37 -30,-40 -28,-41 -27,-42 -24,-44 -21,-44 -19,-46 -17,-47 -14,-48 -12,-48 -9,-49 -7,-49 -4,-49 -1,-50 z m 0,-948 z m 1917,1897 z"
                   inkscape:connector-curvature="0" />
              </g>
            </g>
            <g
               id="g125">
              <g
                 id="id4">
                <path
                   style="fill:#1b76c8;stroke:none"
                   id="path128"
                   d="M 9839,6865 8995,9138 8150,6865 Z m 0,2273 z M 8150,6865 Z"
                   inkscape:connector-curvature="0" />
              </g>
            </g>
            <g
               id="g130">
              <g
                 id="id5">
                <path
                   style="fill:#1b76c8;stroke:none"
                   id="path133"
                   d="m 9742,5119 v 0 l 12,-13 12,-13 14,-12 13,-11 15,-9 15,-10 16,-9 16,-7 18,-6 17,-7 18,-4 17,-4 19,-2 19,-2 19,-2 19,1 18,1 20,2 19,3 19,4 19,5 19,6 18,7 18,7 19,9 17,10 18,9 16,12 16,12 16,12 v 0 l 16,13 14,14 14,15 13,15 12,15 11,16 11,17 10,18 8,18 9,17 7,18 6,18 5,19 5,19 2,19 3,18 1,19 v 18 l 1,19 -2,18 -3,18 -4,18 -5,17 -5,18 -7,16 -7,16 -8,16 -10,15 -10,14 -11,14 v 0 l -12,13 -12,13 -14,12 -13,11 -15,9 -15,10 -17,8 -15,8 -17,6 -18,6 -18,5 -19,4 -18,3 -18,1 -19,1 h -19 l -20,-1 -18,-3 -19,-2 -19,-4 -19,-5 -19,-6 -19,-7 -18,-8 -18,-8 -18,-10 -17,-10 -17,-12 -17,-11 -15,-13 v 0 l -15,-13 -14,-14 -14,-15 -14,-15 -12,-16 -11,-17 -11,-16 -10,-17 -9,-18 -8,-17 -7,-19 -6,-18 -5,-18 -5,-20 -3,-18 -2,-19 -2,-18 v -19 l 1,-19 2,-18 2,-18 4,-18 5,-17 5,-18 7,-17 7,-16 9,-15 9,-15 10,-14 11,-14 z m 218,-259 z m 152,1014 z"
                   inkscape:connector-curvature="0" />
              </g>
            </g>
            <g
               id="g135">
              <g
                 id="id6">
                <path
                   style="fill:#1b76c8;stroke:none"
                   id="path138"
                   d="m 10307,5639 -798,349 210,-846 z m -504,597 z m -84,-1094 z"
                   inkscape:connector-curvature="0" />
              </g>
            </g>
            <g
               id="g140">
              <g
                 id="id7">
                <path
                   style="fill:#1b76c8;stroke:none"
                   id="path143"
                   d="m 7671,5611 v 0 l -11,-15 -10,-13 -9,-16 -9,-15 -7,-16 -6,-17 -6,-17 -4,-18 -4,-18 -2,-17 -1,-19 -2,-18 2,-19 1,-19 2,-18 4,-19 4,-19 6,-17 6,-19 7,-19 9,-17 9,-18 10,-16 10,-17 13,-16 12,-16 12,-15 15,-15 14,-13 15,-14 v 0 l 15,-13 17,-11 17,-11 17,-10 17,-9 18,-9 19,-7 19,-7 19,-5 19,-6 18,-4 19,-2 19,-2 20,-2 18,1 19,1 19,1 18,4 19,3 17,6 17,5 17,7 17,8 15,8 16,9 14,11 13,10 14,12 12,13 12,13 v 0 l 11,14 10,14 9,16 9,15 7,16 6,17 5,17 5,17 4,18 1,18 3,19 v 18 l -1,19 -1,18 -3,19 -3,18 -5,20 -5,18 -6,18 -7,18 -9,18 -9,17 -10,18 -11,17 -11,16 -13,15 -13,16 -15,14 -14,14 -15,13 v 0 l -15,13 -17,11 -17,11 -17,11 -18,9 -18,9 -18,7 -19,7 -19,5 -19,5 -19,4 -19,3 -19,2 -20,1 -19,-1 -19,-1 -18,-1 -18,-4 -18,-3 -18,-5 -18,-6 -17,-6 -15,-8 -17,-9 -15,-9 -15,-10 -13,-11 -14,-12 -11,-13 -13,-13 z m -215,-260 z m 1022,28 z"
                   inkscape:connector-curvature="0" />
              </g>
            </g>
            <g
               id="g145">
              <g
                 id="id8">
                <path
                   style="fill:#1b76c8;stroke:none"
                   id="path148"
                   d="m 8279,5142 203,848 -796,-356 z m 499,602 z M 7686,5634 Z"
                   inkscape:connector-curvature="0" />
              </g>
            </g>
            <g
               id="g150">
              <g
                 id="id9">
                <path
                   style="fill:#ffffff;stroke:none"
                   id="path153"
                   d="m 7900,5399 v 0 -5 l 1,-5 v -5 l 1,-6 1,-5 2,-5 2,-4 2,-5 2,-5 2,-5 3,-4 3,-4 3,-4 3,-4 4,-4 4,-4 4,-3 4,-3 4,-3 5,-3 4,-2 5,-2 5,-2 4,-2 5,-2 5,-1 6,-1 h 5 l 5,-1 h 5 v 0 h 5 l 5,1 h 5 l 6,1 5,1 5,2 4,2 5,2 5,2 5,2 4,3 4,3 4,3 4,3 4,4 4,4 3,4 3,4 3,4 3,5 2,4 2,5 2,5 2,4 2,5 1,5 1,6 v 5 l 1,5 v 5 h -1 v 5 l -1,5 v 5 l -1,6 -1,5 -2,5 -2,4 -2,5 -2,5 -2,4 -3,5 -3,4 -3,4 -3,4 -4,4 -4,4 -4,3 -4,3 -4,3 -4,3 -5,2 -5,2 -5,2 -4,2 -5,2 -5,1 -6,1 h -5 l -5,1 h -5 v -1 h -5 l -5,-1 h -5 l -6,-1 -5,-1 -5,-2 -4,-2 -5,-2 -5,-2 -4,-2 -5,-3 -4,-3 -4,-3 -4,-3 -4,-4 -4,-4 -3,-4 -3,-4 -3,-4 -3,-4 -2,-5 -2,-5 -2,-5 -2,-4 -2,-5 -1,-5 -1,-6 v -5 l -1,-5 v -5 z m 0,-99 z m 199,199 z"
                   inkscape:connector-curvature="0" />
              </g>
            </g>
            <g
               id="g155">
              <g
                 id="id10">
                <path
                   style="fill:#ffffff;stroke:none"
                   id="path158"
                   d="m 9901,5400 v 0 -5 l 1,-5 v -5 l 1,-6 1,-5 2,-5 2,-4 2,-5 2,-5 2,-5 3,-4 3,-4 3,-4 3,-4 4,-4 4,-4 4,-3 4,-3 4,-3 5,-3 4,-2 5,-2 5,-2 4,-2 5,-2 5,-1 6,-1 h 5 l 5,-1 h 5 v 0 h 5 l 5,1 h 5 l 6,1 5,1 5,2 4,2 5,2 5,2 5,2 4,3 4,3 4,3 4,3 4,4 4,4 3,4 3,4 3,4 3,5 2,4 2,5 2,5 2,4 2,5 1,5 1,6 v 5 l 1,5 v 5 h -1 v 5 l -1,5 v 5 l -1,6 -1,5 -2,5 -2,4 -2,5 -2,5 -2,4 -3,5 -3,4 -3,4 -3,4 -4,4 -4,4 -4,3 -4,3 -4,3 -4,3 -5,2 -5,2 -5,2 -4,2 -5,2 -5,1 -6,1 h -5 l -5,1 h -5 v -1 h -5 l -5,-1 h -5 l -6,-1 -5,-1 -5,-2 -4,-2 -5,-2 -5,-2 -4,-2 -5,-3 -4,-3 -4,-3 -4,-3 -4,-4 -4,-4 -3,-4 -3,-4 -3,-4 -3,-4 -2,-5 -2,-5 -2,-5 -2,-4 -2,-5 -1,-5 -1,-6 v -5 l -1,-5 v -5 z m 0,-99 z m 199,199 z"
                   inkscape:connector-curvature="0" />
              </g>
            </g>
            <g
               id="g160">
              <g
                 id="id11">
                <path
                   style="fill:#ffffff;stroke:none"
                   id="path163"
                   d="m 9465,6923 h -1 l -13,13 -13,14 -15,13 -15,12 -17,12 -18,12 -18,11 -20,10 -20,10 -22,9 -22,8 -22,8 -24,7 -24,7 -24,5 -25,5 -25,5 -26,3 -25,3 -26,2 -27,1 h -26 -26 l -26,-2 -26,-2 -26,-3 -25,-3 -26,-5 -24,-5 -25,-6 -23,-6 -24,-7 -22,-8 -22,-9 -21,-9 -20,-10 -20,-11 -18,-11 -18,-11 -16,-12 -16,-13 -14,-13 -13,-14 -12,-13 -11,-15 -10,-14 -8,-15 -8,-15 -5,-15 -5,-15 -3,-16 -2,-15 -1,-16 154,-1 v 0 8 l 2,8 2,8 3,7 4,8 5,8 6,7 7,7 7,7 9,7 9,7 10,7 11,6 12,6 12,6 13,6 14,5 14,5 15,5 15,4 16,4 17,4 16,3 18,3 17,3 18,2 18,2 18,1 18,1 19,1 h 18 19 l 18,-1 19,-1 18,-1 18,-2 18,-2 17,-2 18,-3 16,-4 17,-3 16,-4 15,-4 15,-5 15,-5 14,-5 13,-6 12,-6 12,-6 11,-6 z m 54,170 z M 8480,6474 Z"
                   inkscape:connector-curvature="0" />
              </g>
            </g>
            <g
               id="g165">
              <g
                 id="id12">
                <path
                   style="fill:#ffffff;stroke:none"
                   id="path168"
                   d="m 8480,6201 v 0 -14 l 1,-14 1,-15 2,-14 2,-13 2,-14 3,-13 4,-14 4,-12 4,-13 5,-12 5,-12 6,-11 5,-11 7,-10 6,-10 7,-9 7,-9 8,-8 8,-8 7,-6 9,-6 8,-6 9,-5 8,-4 9,-3 9,-3 9,-2 9,-1 h 9 v 0 h 9 l 9,1 9,2 9,3 9,3 8,4 9,5 8,5 8,7 8,6 8,8 7,8 8,8 7,10 6,9 6,11 6,10 6,12 5,11 5,12 4,13 4,13 3,13 3,13 3,14 2,14 2,14 1,14 1,14 v 14 h -1 v 14 l -1,14 -1,15 -2,14 -2,13 -2,14 -3,13 -4,14 -4,12 -4,13 -5,12 -5,12 -6,11 -5,11 -7,10 -6,10 -7,9 -7,9 -8,8 -7,8 -8,6 -9,6 -8,6 -9,5 -8,4 -9,3 -9,3 -9,2 -9,1 h -9 v 0 h -9 l -9,-1 -9,-2 -9,-3 -9,-3 -8,-4 -9,-5 -8,-6 -9,-6 -7,-6 -8,-8 -8,-8 -7,-9 -7,-9 -6,-10 -7,-10 -5,-11 -6,-11 -5,-12 -5,-12 -4,-13 -4,-12 -4,-14 -3,-13 -2,-14 -2,-13 -2,-14 -1,-15 -1,-14 v -14 z m 0,-272 z m 347,544 z"
                   inkscape:connector-curvature="0" />
              </g>
            </g>
            <g
               id="g170">
              <g
                 id="id13">
                <path
                   style="fill:#ffffff;stroke:none"
                   id="path173"
                   d="m 9180,6202 v 0 -14 l 1,-14 1,-15 2,-14 2,-13 2,-14 3,-13 4,-14 4,-12 4,-13 5,-12 5,-12 6,-11 5,-11 7,-10 6,-10 7,-9 7,-9 8,-8 8,-8 7,-6 9,-6 8,-6 9,-5 8,-4 9,-3 9,-3 9,-2 9,-1 h 9 v 0 h 9 l 9,1 9,2 9,3 9,3 8,4 9,5 8,5 8,7 8,6 8,8 7,8 8,8 7,10 6,9 6,11 6,10 6,12 5,11 5,12 4,13 4,13 3,13 3,13 3,14 2,14 2,14 1,14 1,14 v 14 h -1 v 14 l -1,14 -1,15 -2,14 -2,13 -2,14 -3,13 -4,14 -4,12 -4,13 -5,12 -5,12 -6,11 -5,11 -7,10 -6,10 -7,9 -7,9 -8,8 -7,8 -8,6 -9,6 -8,6 -9,5 -8,4 -9,3 -9,3 -9,2 -9,1 h -9 v 0 h -9 l -9,-1 -9,-2 -9,-3 -9,-3 -8,-4 -9,-5 -8,-6 -9,-6 -7,-6 -8,-8 -8,-8 -7,-9 -7,-9 -6,-10 -7,-10 -5,-11 -6,-11 -5,-12 -5,-12 -4,-13 -4,-12 -4,-14 -3,-13 -2,-14 -2,-13 -2,-14 -1,-15 -1,-14 v -14 z m 0,-272 z m 347,544 z"
                   inkscape:connector-curvature="0" />
              </g>
            </g>
          </g>
        </g>
      </g>
    </g>
  </g>
</svg>
