<?xml version="1.0" encoding="UTF-8" standalone="no"?>
<svg
   xmlns:dc="http://purl.org/dc/elements/1.1/"
   xmlns:cc="http://creativecommons.org/ns#"
   xmlns:rdf="http://www.w3.org/1999/02/22-rdf-syntax-ns#"
   xmlns:svg="http://www.w3.org/2000/svg"
   xmlns="http://www.w3.org/2000/svg"
   id="svg4038"
   height="125"
   width="125"
   version="1.1">
  <defs
     id="defs4040" />
  <metadata
     id="metadata4043">
    <rdf:RDF>
      <cc:Work
         rdf:about="">
        <dc:format>image/svg+xml</dc:format>
        <dc:type
           rdf:resource="http://purl.org/dc/dcmitype/StillImage" />
        <dc:title></dc:title>
      </cc:Work>
    </rdf:RDF>
  </metadata>
  <g
     id="layer1"
     transform="matrix(0.8,0,0,1.0309084,2.9336328,-482.98747)">
    <g
       id="g3123"
       transform="matrix(0.03543307,0,0,0.03543307,-426.85368,121.58083)">
      <g
         id="g71"
         transform="translate(-56.732341,312.02788)">
        <g
           id="id6">
          <path
             style="fill:#dc614f;stroke:none"
             id="path74"
             d="m 13600,9500 1601,3401 -3201,0 1600,-3401 z m -1600,0 0,0 z m 3201,3401 0,0 z" />
        </g>
      </g>
      <g
         id="g76"
         transform="translate(-56.732341,312.02788)">
        <g
           id="id7">
          <path
             style="fill:#dc614f;stroke:none"
             id="path79"
             d="m 14850,10299 1550,2602 -3100,0 1550,-2602 z m -1550,0 0,0 z m 3100,2602 0,0 z" />
        </g>
      </g>
      <g
         id="g81"
         transform="translate(-56.732341,312.02788)">
        <g
           id="id8">
          <path
             style="fill:none;stroke:#ffffff;stroke-width:300;stroke-linejoin:round"
             id="path84"
             d="m 14400,11100 c -500,600 -800,100 -1200,700 -400,600 1900,800 1900,800" />
        </g>
      </g>
    </g>
  </g>
</svg>
