<?xml version="1.0" encoding="UTF-8" standalone="no"?>
<svg
   xmlns:dc="http://purl.org/dc/elements/1.1/"
   xmlns:cc="http://creativecommons.org/ns#"
   xmlns:rdf="http://www.w3.org/1999/02/22-rdf-syntax-ns#"
   xmlns:svg="http://www.w3.org/2000/svg"
   xmlns="http://www.w3.org/2000/svg"
   id="svg4038"
   height="125"
   width="125"
   version="1.1">
  <defs
     id="defs4040" />
  <metadata
     id="metadata4043">
    <rdf:RDF>
      <cc:Work
         rdf:about="">
        <dc:format>image/svg+xml</dc:format>
        <dc:type
           rdf:resource="http://purl.org/dc/dcmitype/StillImage" />
        <dc:title></dc:title>
      </cc:Work>
    </rdf:RDF>
  </metadata>
  <g
     id="layer1"
     transform="matrix(0.8,0,0,1.0309084,2.9336328,-482.98747)">
    <g
       id="g3123"
       transform="matrix(0.03543307,0,0,0.03543307,-426.85368,121.58083)">
      <g
         id="g71"
         transform="translate(-56.732341,312.02788)">
        <g
           id="id6">
          <path
             style="fill:#dc614f;stroke:none"
             id="path74"
             d="m 13600,9500 1601,3401 -3201,0 1600,-3401 z m -1600,0 0,0 z m 3201,3401 0,0 z" />
        </g>
      </g>
      <g
         id="g76"
         transform="translate(-56.732341,312.02788)">
        <g
           id="id7">
          <path
             style="fill:#dc614f;stroke:none"
             id="path79"
             d="m 14850,10299 1550,2602 -3100,0 1550,-2602 z m -1550,0 0,0 z m 3100,2602 0,0 z" />
        </g>
      </g>
    </g>
  </g>
  <rect
     style="fill:#000000;fill-opacity:1;fill-rule:evenodd;stroke:#000000;stroke-width:0.06920914px;stroke-linecap:butt;stroke-linejoin:miter;stroke-opacity:1"
     id="rect4138"
     width="70.288818"
     height="70.776939"
     x="55.343788"
     y="54.052803" />
  <path
     style="fill:none;fill-opacity:1;fill-rule:evenodd;stroke:#ffffff;stroke-width:10.84215832;stroke-linecap:butt;stroke-linejoin:miter;stroke-miterlimit:4;stroke-dasharray:none;stroke-opacity:1"
     d="m 60.224318,89.278777 61.503992,0"
     id="path4160" />
  <path
     style="fill:none;fill-opacity:1;fill-rule:evenodd;stroke:#ffffff;stroke-width:10.84215832;stroke-linecap:butt;stroke-linejoin:miter;stroke-miterlimit:4;stroke-dasharray:none;stroke-opacity:1"
     d="m 91.464448,120.73596 0,-61.503982"
     id="path4160-6" />
</svg>
