<?xml version="1.0" encoding="UTF-8" standalone="no"?>
<!-- Created with Inkscape (http://www.inkscape.org/) -->

<svg
   xmlns:dc="http://purl.org/dc/elements/1.1/"
   xmlns:cc="http://creativecommons.org/ns#"
   xmlns:rdf="http://www.w3.org/1999/02/22-rdf-syntax-ns#"
   xmlns:svg="http://www.w3.org/2000/svg"
   xmlns="http://www.w3.org/2000/svg"
   version="1.1"
   width="155.9055"
   height="120.50787"
   id="svg3966">
  <defs
     id="defs3968" />
  <metadata
     id="metadata3971">
    <rdf:RDF>
      <cc:Work
         rdf:about="">
        <dc:format>image/svg+xml</dc:format>
        <dc:type
           rdf:resource="http://purl.org/dc/dcmitype/StillImage" />
        <dc:title></dc:title>
      </cc:Work>
    </rdf:RDF>
  </metadata>
  <g
     transform="translate(-176.33296,-472.10825)"
     id="layer1"
     style="fill:#aaaaaa;fill-opacity:1">
    <g
       transform="matrix(0.03543307,0,0,0.03543307,-37.798566,120.89467)"
       id="g3134"
       style="fill:#aaaaaa;fill-opacity:1">
      <g
         transform="translate(-56.732341,312.02788)"
         id="g56"
         style="fill:#aaaaaa;fill-opacity:1">
        <g
           id="id3"
           style="fill:#aaaaaa;fill-opacity:1">
          <path
             d="m 7700,9600 1601,3401 -3201,0 1600,-3401 z m -1600,0 0,0 z m 3201,3401 0,0 z"
             id="path59"
             style="fill:#aaaaaa;fill-opacity:1;stroke:none" />
        </g>
      </g>
      <g
         transform="translate(-56.732341,312.02788)"
         id="g61"
         style="fill:#aaaaaa;fill-opacity:1">
        <g
           id="id4"
           style="fill:#aaaaaa;fill-opacity:1">
          <path
             d="m 8950,10399 1550,2602 -3100,0 1550,-2602 z m -1550,0 0,0 z m 3100,2602 0,0 z"
             id="path64"
             style="fill:#aaaaaa;fill-opacity:1;stroke:none" />
        </g>
      </g>
      <g
         transform="translate(-56.732341,312.02788)"
         id="g66"
         style="fill:#aaaaaa;fill-opacity:1">
        <g
           id="id5"
           style="fill:#aaaaaa;fill-opacity:1">
          <path
             d="m 8500,11200 c -500,600 -800,100 -1200,700 -400,600 1900,800 1900,800"
             id="path69"
             style="fill:#aaaaaa;fill-opacity:1;stroke:#ffffff;stroke-width:300;stroke-linejoin:round" />
        </g>
      </g>
    </g>
  </g>
</svg>
