<?xml version="1.0" encoding="UTF-8" standalone="no"?>
<svg
   xmlns:dc="http://purl.org/dc/elements/1.1/"
   xmlns:cc="http://creativecommons.org/ns#"
   xmlns:rdf="http://www.w3.org/1999/02/22-rdf-syntax-ns#"
   xmlns:svg="http://www.w3.org/2000/svg"
   xmlns="http://www.w3.org/2000/svg"
   id="svg4"
   viewBox="0 0 16 16"
   height="16"
   width="16"
   version="1.1">
  <metadata
     id="metadata10">
    <rdf:RDF>
      <cc:Work
         rdf:about="">
        <dc:format>image/svg+xml</dc:format>
        <dc:type
           rdf:resource="http://purl.org/dc/dcmitype/StillImage" />
        <dc:title></dc:title>
      </cc:Work>
    </rdf:RDF>
  </metadata>
  <defs
     id="defs8" />
  <path
     id="path2"
     style="fill:#0e8517;fill-opacity:1;stroke:none;stroke-width:1.11172438"
     d="m 3.6968595,1.9322034 c -1.4052862,0 -1.4052862,1.7440678 0,1.7440678 h 8.5037835 c 1.423416,0 1.423303,-1.7440678 0,-1.7440678 z M 4.7598324,4.2576271 3.9626027,7.7457627 H 1.5709138 c -1.40528619,0 -1.40528619,1.7440678 0,1.7440678 H 3.5639879 L 2.6338866,13.559322 H 4.228346 L 5.1584472,9.4898305 h 5.5806078 l 0.930102,4.0694915 h 1.594459 L 12.333515,9.4898305 h 1.993074 c 1.423416,0 1.423302,-1.7440678 0,-1.7440678 H 11.9349 L 11.13767,4.2576271 H 9.5432105 L 10.34044,7.7457627 H 5.5570621 L 6.3542917,4.2576271 Z" />
  <rect
     y="8.2419577"
     x="7.6724558"
     height="7.9228644"
     width="8.4516926"
     id="rect4138"
     style="fill:#000000;fill-opacity:1;fill-rule:evenodd;stroke:#000000;stroke-width:0.00802948px;stroke-linecap:butt;stroke-linejoin:miter;stroke-opacity:1" />
  <path
     id="path4160"
     d="m 8.259304,12.1852 h 7.395384"
     style="fill:none;fill-opacity:1;fill-rule:evenodd;stroke:#ffffff;stroke-width:1.2578814;stroke-linecap:butt;stroke-linejoin:miter;stroke-miterlimit:4;stroke-dasharray:none;stroke-opacity:1" />
  <path
     id="path4160-6"
     d="M 12.015691,15.706559 V 8.8217214"
     style="fill:none;fill-opacity:1;fill-rule:evenodd;stroke:#ffffff;stroke-width:1.2578814;stroke-linecap:butt;stroke-linejoin:miter;stroke-miterlimit:4;stroke-dasharray:none;stroke-opacity:1" />
</svg>
