<?xml version="1.0" encoding="UTF-8" standalone="no"?>
<svg
   xmlns:dc="http://purl.org/dc/elements/1.1/"
   xmlns:cc="http://creativecommons.org/ns#"
   xmlns:rdf="http://www.w3.org/1999/02/22-rdf-syntax-ns#"
   xmlns:svg="http://www.w3.org/2000/svg"
   xmlns="http://www.w3.org/2000/svg"
   height="979.90002"
   width="740.33899"
   id="svg8"
   xml:space="preserve"
   enable-background="new 0 0 1000 1000"
   viewBox="0 0 740.33899 979.90002"
   y="0px"
   x="0px"
   version="1.1"><metadata
   id="metadata36"><rdf:RDF><cc:Work
       rdf:about=""><dc:format>image/svg+xml</dc:format><dc:type
         rdf:resource="http://purl.org/dc/dcmitype/StillImage" /><dc:title></dc:title></cc:Work></rdf:RDF></metadata>
<defs
   id="defs12" />
<g
   transform="translate(-136.18644,-10)"
   id="g6"><path
     id="path4"
     d="M 500,10 C 287.7,10 136.18644,148.80169 136.18644,361.10169 136.18644,566.00169 460,963.8 474.7,979.1 c 6.6,7 15.8,10.8 25.3,10.8 h 0.8 c 9.8,0 19.1,-4.6 25.6,-12 L 645.9,841.1 C 804.5,646.8 876.52542,462.70169 876.52542,361.10169 876.52542,148.80169 712.3,10 500,10 Z"
     style="fill:#1b76c8;fill-opacity:1" /><circle
     r="201.27119"
     cy="336.86441"
     cx="506.3559"
     id="path822"
     style="opacity:1;fill:#ffffff;fill-opacity:1;fill-rule:evenodd;stroke:#000000;stroke-width:0;stroke-linecap:round;stroke-linejoin:round;stroke-miterlimit:3.9000001;stroke-dasharray:none;stroke-opacity:1" /><rect
     y="553.44995"
     x="436.00497"
     height="436.7756"
     width="451.0011"
     id="rect4138"
     style="fill:#000000;fill-opacity:1;fill-rule:evenodd;stroke:#000000;stroke-width:0.43550411px;stroke-linecap:butt;stroke-linejoin:miter;stroke-opacity:1" /><path
     id="path4160"
     d="M 469.32059,768.83492 H 863.95472"
     style="fill:none;fill-opacity:1;fill-rule:evenodd;stroke:#ffffff;stroke-width:68.22518158;stroke-linecap:butt;stroke-linejoin:miter;stroke-miterlimit:4;stroke-dasharray:none;stroke-opacity:1" /><path
     id="path4160-6"
     d="M 669.76962,962.96209 V 583.41145"
     style="fill:none;fill-opacity:1;fill-rule:evenodd;stroke:#ffffff;stroke-width:68.22518158;stroke-linecap:butt;stroke-linejoin:miter;stroke-miterlimit:4;stroke-dasharray:none;stroke-opacity:1" /></g>
</svg>