<?xml version="1.0" encoding="UTF-8" standalone="no"?>
<svg
   height="32px"
   id="Layer_1"
   style="enable-background:new 0 0 32 32;"
   version="1.1"
   viewBox="0 0 32 32"
   width="32px"
   xml:space="preserve"
   sodipodi:docname="routeMarkersType.svg"
   inkscape:version="1.1.2 (0a00cf5339, 2022-02-04)"
   xmlns:inkscape="http://www.inkscape.org/namespaces/inkscape"
   xmlns:sodipodi="http://sodipodi.sourceforge.net/DTD/sodipodi-0.dtd"
   xmlns="http://www.w3.org/2000/svg"
   xmlns:svg="http://www.w3.org/2000/svg"><defs
     id="defs7" /><sodipodi:namedview
     id="namedview5"
     pagecolor="#ffffff"
     bordercolor="#666666"
     borderopacity="1.0"
     inkscape:pageshadow="2"
     inkscape:pageopacity="0.0"
     inkscape:pagecheckerboard="0"
     showgrid="false"
     inkscape:zoom="10"
     inkscape:cx="16.1"
     inkscape:cy="16.2"
     inkscape:window-width="1532"
     inkscape:window-height="922"
     inkscape:window-x="148"
     inkscape:window-y="97"
     inkscape:window-maximized="0"
     inkscape:current-layer="Layer_1" /><path
     d="m 13.551024,9.6910309 h 13.26407 c 0.610148,0 1.10534,-0.896 1.10534,-2 0,-1.1040004 -0.495192,-2.0000004 -1.10534,-2.0000004 h -13.26407 c -0.610147,0 -1.105339,0.896 -1.105339,2.0000004 0,1.104 0.495192,2 1.105339,2 z m 13.26407,4.0000001 h -13.26407 c -0.610147,0 -1.105339,0.896 -1.105339,2 0,1.104 0.495192,2 1.105339,2 h 13.26407 c 0.610148,0 1.10534,-0.896 1.10534,-2 0,-1.104 -0.495192,-2 -1.10534,-2 z m 0,8 h -13.26407 c -0.610147,0 -1.105339,0.896 -1.105339,2 0,1.104 0.495192,2 1.105339,2 h 13.26407 c 0.610148,0 1.10534,-0.896 1.10534,-2 0,-1.104 -0.495192,-2 -1.10534,-2 z"
     id="path2"
     style="stroke-width:0.743418" /><rect
     style="fill:#000000;fill-opacity:0.84;fill-rule:evenodd;stroke-width:28;stroke-linecap:round;stroke-linejoin:round"
     id="rect912"
     width="6.6662979"
     height="6.6662979"
     x="1.7804916"
     y="4.752831"
     rx="44.0728"
     ry="6.6662979" /><path
     sodipodi:type="star"
     style="fill:#000000;fill-opacity:0.84;fill-rule:evenodd;stroke-width:28;stroke-linecap:round;stroke-linejoin:round"
     id="path1662"
     inkscape:flatsided="true"
     sodipodi:sides="3"
     sodipodi:cx="4.5009451"
     sodipodi:cy="16.572712"
     sodipodi:r1="4.3277168"
     sodipodi:r2="2.1638584"
     sodipodi:arg1="0.52359878"
     sodipodi:arg2="1.5707963"
     inkscape:rounded="0"
     inkscape:randomized="0"
     d="m 8.2488578,18.73657 -7.49582543,0 3.74791273,-6.491575 z"
     inkscape:transform-center-y="-1.008866"
     transform="matrix(0.91384615,0,0,0.93246952,1.0004696,1.1156349)" /><path
     sodipodi:type="star"
     style="fill:#000000;fill-opacity:0.84;fill-rule:evenodd;stroke-width:28;stroke-linecap:round;stroke-linejoin:round"
     id="path1662-3"
     inkscape:flatsided="true"
     sodipodi:sides="4"
     sodipodi:cx="4.5009451"
     sodipodi:cy="16.572712"
     sodipodi:r1="5.1332531"
     sodipodi:r2="2.1638584"
     sodipodi:arg1="0.78355652"
     sodipodi:arg2="1.5689546"
     inkscape:rounded="0"
     inkscape:randomized="0"
     inkscape:transform-center-y="-0.88251289"
     d="m 8.1373817,20.195779 -7.25950381,0.01337 -0.0133694,-7.259504 7.25950384,-0.01337 z"
     transform="matrix(0.8340574,0,0,0.81568462,1.3595944,10.244536)" /></svg>
