<?xml version="1.0" encoding="UTF-8" standalone="no"?>
<svg
   xmlns:dc="http://purl.org/dc/elements/1.1/"
   xmlns:cc="http://creativecommons.org/ns#"
   xmlns:rdf="http://www.w3.org/1999/02/22-rdf-syntax-ns#"
   xmlns:svg="http://www.w3.org/2000/svg"
   xmlns="http://www.w3.org/2000/svg"
   id="svg2985"
   height="64"
   width="64"
   version="1.1">
  <defs
     id="defs2987" />
  <metadata
     id="metadata2990">
    <rdf:RDF>
      <cc:Work
         rdf:about="">
        <dc:format>image/svg+xml</dc:format>
        <dc:type
           rdf:resource="http://purl.org/dc/dcmitype/StillImage" />
        <dc:title></dc:title>
      </cc:Work>
    </rdf:RDF>
  </metadata>
  <g
     id="layer1"
     transform="translate(2,6)">
    <path
       style="fill:#000000;fill-opacity:1;stroke:#000000;stroke-width:2.8283844;stroke-linecap:butt;stroke-linejoin:miter;stroke-miterlimit:4;stroke-dasharray:none;stroke-opacity:1"
       id="path2995"
       d="M 7.625011,7.5850339 48.781262,2.5073591 42.62403,30.071886 6.9247872,29.886357 Z" />
    <path
       style="fill:none;stroke:#000000;stroke-width:2.55089617;stroke-linecap:butt;stroke-linejoin:miter;stroke-miterlimit:4;stroke-opacity:1;stroke-dasharray:none"
       id="path4359"
       d="m 18.345607,36.479964 7.081054,-2.202566 6.773184,2.753209" />
    <path
       style="fill:none;stroke:#000000;stroke-width:2.55089617;stroke-linecap:butt;stroke-linejoin:miter;stroke-miterlimit:4;stroke-opacity:1;stroke-dasharray:none"
       id="path4383"
       d="M 48.824932,10.251737 54.366629,9.425775" />
    <path
       style="fill:#000000;fill-opacity:1;fill-rule:evenodd;stroke:#000000;stroke-width:2.55089617;stroke-linecap:butt;stroke-linejoin:miter;stroke-miterlimit:4;stroke-opacity:1;stroke-dasharray:none"
       id="path4385"
       d="m 56.829601,11.288113 a 2.3090401,2.0649059 0 0 1 -4.61808,0 2.3090401,2.0649059 0 1 1 4.61808,0 z" />
    <path
       style="fill:#000000;fill-opacity:1;stroke:#000000;stroke-width:2.41256022;stroke-linecap:butt;stroke-linejoin:round;stroke-miterlimit:4;stroke-opacity:1;stroke-dasharray:none"
       id="path3762"
       transform="matrix(1.0151596,0,0,0.90292552,-19.843094,-12.036602)"
       d="m 35.525424,56.542374 a 3.3898306,3.6610169 0 1 1 -6.779661,0 3.3898306,3.6610169 0 1 1 6.779661,0 z" />
    <path
       style="fill:#000000;fill-opacity:1;stroke:#000000;stroke-width:2.41256022;stroke-linecap:butt;stroke-linejoin:round;stroke-miterlimit:4;stroke-opacity:1;stroke-dasharray:none"
       id="path3762-1"
       transform="matrix(1.0151596,0,0,0.90292552,5.5128372,-12.30779)"
       d="m 35.525424,56.542374 a 3.3898306,3.6610169 0 1 1 -6.779661,0 3.3898306,3.6610169 0 1 1 6.779661,0 z" />
    <path
       id="path4141"
       d="m 15.677968,17.59322 22.677964,0"
       style="fill:none;fill-rule:evenodd;stroke:#ffffff;stroke-width:6.18783855;stroke-linecap:butt;stroke-linejoin:miter;stroke-miterlimit:4;stroke-dasharray:none;stroke-opacity:1" />
    <path
       id="path4141-6"
       d="m 27.288136,28.661016 0,-22.6779637"
       style="fill:none;fill-rule:evenodd;stroke:#ffffff;stroke-width:6.18783855;stroke-linecap:butt;stroke-linejoin:miter;stroke-miterlimit:4;stroke-dasharray:none;stroke-opacity:1" />
  </g>
</svg>
