<?xml version="1.0" encoding="UTF-8" standalone="no"?>
<svg
   version="1.1"
   x="0px"
   y="0px"
   viewBox="0 0 740.33899 979.90002"
   enable-background="new 0 0 1000 1000"
   xml:space="preserve"
   id="svg8"
   width="740.33899"
   height="979.90002"
   xmlns="http://www.w3.org/2000/svg"
   xmlns:svg="http://www.w3.org/2000/svg"
   xmlns:rdf="http://www.w3.org/1999/02/22-rdf-syntax-ns#"
   xmlns:cc="http://creativecommons.org/ns#"
   xmlns:dc="http://purl.org/dc/elements/1.1/"><metadata
   id="metadata9"><rdf:RDF><cc:Work
       rdf:about=""><dc:format>image/svg+xml</dc:format><dc:type
         rdf:resource="http://purl.org/dc/dcmitype/StillImage" /></cc:Work></rdf:RDF></metadata><defs
   id="defs12" />

<path
   style="fill:none;fill-opacity:1;fill-rule:evenodd;stroke:#aaaaaf;stroke-width:90;stroke-linecap:butt;stroke-linejoin:miter;stroke-miterlimit:4;stroke-dasharray:none;stroke-opacity:1"
   d="M 312.7145,973.11563 C 402.11104,856.07323 491.50636,739.03242 443.07882,633.69911 394.65127,528.3658 208.40914,434.74429 225.29727,343.38595 242.1854,252.02761 462.20455,162.94566 682.22938,73.861418"
   id="path838-3-6-1" /><path
   style="fill:none;fill-opacity:1;fill-rule:evenodd;stroke:#aaaaaa;stroke-width:90;stroke-linecap:butt;stroke-linejoin:miter;stroke-miterlimit:4;stroke-dasharray:none;stroke-opacity:1"
   d="M 208.19637,976.35607 C 318.35897,848.48592 428.52005,720.61753 390.47537,609.87045 352.43069,499.12337 166.18856,405.50186 186.21422,321.93085 206.23988,238.35984 432.5336,164.85158 658.83308,91.34145"
   id="path838-3-6-1-5" /><path
   style="fill:none;fill-opacity:1;fill-rule:evenodd;stroke:#aaaaaa;stroke-width:90;stroke-linecap:butt;stroke-linejoin:miter;stroke-miterlimit:4;stroke-dasharray:none;stroke-opacity:1"
   d="M 88.828452,965.12679 C 228.83028,844.31958 368.82862,723.51538 340.23037,622.26156 311.63213,521.00773 114.44201,439.31022 141.43419,348.80797 168.42637,258.30572 419.59993,159.01129 670.78015,59.714238"
   id="path838-3-1" /><path
   style="fill:none;fill-opacity:1;fill-rule:evenodd;stroke:#8a8a8a;stroke-width:30;stroke-linecap:butt;stroke-linejoin:miter;stroke-miterlimit:4;stroke-dasharray:none;stroke-opacity:1"
   d="M 50.353638,925.50493 C 196.10604,820.12983 341.85473,714.75742 308.73321,620.94485 275.61168,527.13228 63.625331,444.88515 92.516102,347.00502 121.40687,249.12489 391.17376,135.6252 660.94788,22.122478"
   id="path838-3" /><path
   style="fill:none;fill-opacity:1;fill-rule:evenodd;stroke:#8a8a8a;stroke-width:26.2007;stroke-linecap:butt;stroke-linejoin:miter;stroke-miterlimit:4;stroke-dasharray:none;stroke-opacity:1"
   d="M 348.22552,1008.4865 C 441.37895,875.93539 534.52976,743.38801 490.56841,636.24687 446.60706,529.10573 265.53876,447.37857 277.15052,363.43824 288.76227,279.49791 493.05545,193.35653 697.35388,107.21293"
   id="path838-3-6" /><rect
   style="fill:#aaaaaa;fill-opacity:1;fill-rule:evenodd;stroke:none;stroke-width:1px;stroke-linecap:butt;stroke-linejoin:miter;stroke-opacity:1"
   id="rect8931"
   width="297.87189"
   height="82.981522"
   x="50.353638"
   y="925.50494"
   ry="2.2891099" /></svg>
