<?xml version="1.0" encoding="UTF-8" standalone="no"?>
<svg
   version="1.1"
   x="0px"
   y="0px"
   viewBox="0 0 743.72882 1203.3816"
   enable-background="new 0 0 1000 1000"
   xml:space="preserve"
   id="svg8"
   width="743.72882"
   height="1203.3816"
   xmlns="http://www.w3.org/2000/svg"
   xmlns:svg="http://www.w3.org/2000/svg"
   xmlns:rdf="http://www.w3.org/1999/02/22-rdf-syntax-ns#"
   xmlns:cc="http://creativecommons.org/ns#"
   xmlns:dc="http://purl.org/dc/elements/1.1/"><metadata
   id="metadata24"><rdf:RDF><cc:Work
       rdf:about=""><dc:format>image/svg+xml</dc:format><dc:type
         rdf:resource="http://purl.org/dc/dcmitype/StillImage" /></cc:Work></rdf:RDF></metadata>
<defs
   id="defs12" />
<path
   id="path4"
   d="m 370.59322,-1.6949153 c -212.3,0 -367.2033895,121.9970053 -367.2033895,383.7737053 0,121.19369 363.3692295,829.79491 367.2033895,821.10301 0,0 373.13559,-695.82504 373.13559,-821.10301 0,-261.7767 -160.83559,-383.7737053 -373.13559,-383.7737053 z"
   style="fill:#aaaaaa;fill-opacity:0.94117647;stroke-width:1.11042821" />
<g
   id="g1879"
   transform="translate(10.436965)"><path
     style="fill:#000000;fill-opacity:1;fill-rule:nonzero;stroke:#000000;stroke-width:1.82063;stroke-linecap:square;stroke-linejoin:round;stroke-miterlimit:4;stroke-dasharray:none;stroke-opacity:1"
     d="m 469.69602,646.53683 c -5.17975,-2.46886 -12.89571,-8.53363 -17.80771,-13.99696 -15.48104,-17.21864 -19.99752,-29.69319 -40.51099,-111.89121 -10.28303,-41.20441 -19.09004,-78.69448 -19.57112,-83.31126 -0.90465,-8.68152 0.87356,-12.36755 5.96634,-12.36755 4.40697,0 42.54058,33.56241 81.64752,71.86018 54.30811,53.18438 67.45136,71.60503 69.11244,96.86314 1.05384,16.02423 -2.89798,25.58736 -15.29611,37.01555 -19.10548,17.61082 -45.83205,24.2685 -63.54037,15.82811 z"
     id="path845" /><path
     style="fill:#000000;fill-opacity:1;fill-rule:nonzero;stroke:#000000;stroke-width:1.82063;stroke-linecap:square;stroke-linejoin:round;stroke-miterlimit:4;stroke-dasharray:none;stroke-opacity:1"
     d="m 586.39382,433.23825 c -21.14871,-3.87488 -150.13357,-41.27212 -161.49506,-46.82309 -7.86372,-3.84204 -10.0495,-10.19584 -4.52467,-13.15264 12.21292,-6.53615 88.23515,-29.9683 136.9439,-42.20986 49.88781,-12.53789 76.6656,-10.6975 93.81056,6.44746 9.59169,9.59169 14.01306,22.15971 14.00681,39.81522 -0.009,25.3445 -8.58799,42.00626 -26.26883,51.01804 -8.86514,4.51849 -12.88089,5.37969 -27.3095,5.85669 -9.30383,0.30758 -20.62727,-0.12074 -25.16321,-0.95182 z M 431.69426,373.05039 c 0,-1.00135 -0.3613,-1.82064 -0.80287,-1.82064 -0.44157,0 -1.30922,0.81929 -1.92809,1.82064 -0.61887,1.00135 -0.25757,1.82063 0.80287,1.82063 1.06045,0 1.92809,-0.81928 1.92809,-1.82063 z"
     id="path847" /><path
     style="fill:#000000;fill-opacity:1;fill-rule:nonzero;stroke:#000000;stroke-width:1.82063;stroke-linecap:square;stroke-linejoin:round;stroke-miterlimit:4;stroke-dasharray:none;stroke-opacity:1"
     d="m 394.54643,326.70253 c -3.42547,-3.42547 -3.29242,-4.69265 4.56561,-43.48355 10.88782,-53.74742 30.1709,-123.26293 39.49822,-142.39115 17.6467,-36.18935 44.03839,-47.372338 75.35341,-31.9296 22.55504,11.12283 34.90891,27.60524 35.16206,46.91286 0.31734,24.20309 -11.19425,41.8096 -56.60523,86.57536 -53.88551,53.11986 -90.73968,87.29517 -94.13786,87.29517 -0.47141,0 -2.1977,-1.34058 -3.83621,-2.97909 z m 3.62933,-13.40661 c 0.61887,-1.00135 0.25757,-1.82063 -0.80287,-1.82063 -1.06045,0 -1.92809,0.81928 -1.92809,1.82063 0,1.00136 0.3613,1.82064 0.80287,1.82064 0.44159,0 1.30922,-0.81928 1.92809,-1.82064 z"
     id="path849" /><path
     style="fill:#000000;fill-opacity:1;fill-rule:nonzero;stroke:#000000;stroke-width:1.82063;stroke-linecap:square;stroke-linejoin:round;stroke-miterlimit:4;stroke-dasharray:none;stroke-opacity:1"
     d="M 315.12353,325.05951 C 292.67134,308.69726 212.29841,231.37532 193.70659,208.25163 c -20.94162,-26.04629 -27.47211,-48.4287 -19.52203,-66.90918 9.87208,-22.94827 42.77273,-41.11494 66.45004,-36.69154 11.74924,2.19499 17.54397,5.7055 27.26458,16.51715 17.47385,19.43513 22.92616,35.50963 49.18981,145.02124 10.66973,44.48961 12.78101,57.98761 9.66157,61.76901 -2.63068,3.18891 -3.60779,2.9453 -11.62703,-2.8988 z"
     id="path851" /><path
     style="fill:#000000;fill-opacity:1;fill-rule:nonzero;stroke:#000000;stroke-width:1.82063;stroke-linecap:square;stroke-linejoin:round;stroke-miterlimit:4;stroke-dasharray:none;stroke-opacity:1"
     d="M 98.695331,434.91788 C 71.391972,429.1839 57.742684,411.60775 57.71957,382.15356 c -0.02159,-27.51187 7.622831,-42.15864 27.081355,-51.88807 10.305777,-5.15298 12.107792,-5.45453 31.860895,-5.33149 23.47593,0.14623 23.93137,0.24676 99.22454,21.90344 58.16754,16.73081 80.69197,23.88066 86.02495,27.3066 4.98674,3.2035 5.32714,9.04338 0.67232,11.53456 -6.85185,3.667 -57.23435,20.12732 -88.98107,29.07075 -68.74628,19.36664 -95.97154,24.14522 -114.907229,20.16853 z"
     id="path853" /><path
     style="fill:#000000;fill-opacity:1;fill-rule:nonzero;stroke:#000000;stroke-width:1.82063;stroke-linecap:square;stroke-linejoin:round;stroke-miterlimit:4;stroke-dasharray:none;stroke-opacity:1"
     d="m 213.26275,645.61999 c -40.0084,-16.74413 -52.5819,-45.82023 -34.60657,-80.02734 3.70124,-7.04345 11.48438,-18.42018 17.2959,-25.28163 9.64279,-11.38491 102.85947,-101.6505 115.71218,-112.04892 7.63788,-6.17938 14.38543,-5.76967 15.15235,0.92005 1.70558,14.87731 -29.05239,141.55902 -42.2651,174.07568 -8.6532,21.29566 -23.39072,38.21292 -38.09343,43.7276 -7.60783,2.85356 -24.80467,2.14618 -33.19533,-1.36544 z"
     id="path855" /></g></svg>
