<?xml version="1.0" encoding="UTF-8" standalone="no"?>
<svg
   version="1.1"
   x="0px"
   y="0px"
   viewBox="0 0 743.72882 1203.3816"
   enable-background="new 0 0 1000 1000"
   xml:space="preserve"
   id="svg8"
   width="743.72882"
   height="1203.3816"
   sodipodi:docname="viaPoint-eat.svg"
   inkscape:version="1.1.2 (0a00cf5339, 2022-02-04)"
   xmlns:inkscape="http://www.inkscape.org/namespaces/inkscape"
   xmlns:sodipodi="http://sodipodi.sourceforge.net/DTD/sodipodi-0.dtd"
   xmlns="http://www.w3.org/2000/svg"
   xmlns:svg="http://www.w3.org/2000/svg"
   xmlns:rdf="http://www.w3.org/1999/02/22-rdf-syntax-ns#"
   xmlns:cc="http://creativecommons.org/ns#"
   xmlns:dc="http://purl.org/dc/elements/1.1/"><sodipodi:namedview
   id="namedview7"
   pagecolor="#ffffff"
   bordercolor="#666666"
   borderopacity="1.0"
   inkscape:pageshadow="2"
   inkscape:pageopacity="0.0"
   inkscape:pagecheckerboard="0"
   showgrid="false"
   inkscape:zoom="0.56673627"
   inkscape:cx="-158.80402"
   inkscape:cy="601.6908"
   inkscape:window-width="1920"
   inkscape:window-height="1020"
   inkscape:window-x="0"
   inkscape:window-y="31"
   inkscape:window-maximized="1"
   inkscape:current-layer="svg8" /><metadata
   id="metadata24"><rdf:RDF><cc:Work
       rdf:about=""><dc:format>image/svg+xml</dc:format><dc:type
         rdf:resource="http://purl.org/dc/dcmitype/StillImage" /></cc:Work></rdf:RDF></metadata>
<defs
   id="defs12" />
<path
   id="path4"
   d="m 370.59322,-1.6949153 c -212.3,0 -367.2033895,121.9970053 -367.2033895,383.7737053 0,121.19369 363.3692295,829.79491 367.2033895,821.10301 0,0 373.13559,-695.82504 373.13559,-821.10301 0,-261.7767 -160.83559,-383.7737053 -373.13559,-383.7737053 z"
   style="fill:#aaaaaa;fill-opacity:0.94117647;stroke-width:1.11042821" />
<path
   d="m 329.92503,305.11775 c 0,21.54007 -24.81188,44.60005 -56.98385,44.60005 v 363.58936 c 0,51.60963 -88.94803,51.60963 -88.94803,0 V 349.7178 c -31.33011,0 -58.59831,-19.08039 -58.59831,-47.67217 V 101.95932 c 0,-17.417182 43.83348,-18.059663 42.48391,0.67285 v 147.91479 h 42.18198 V 101.46203 c 0,-16.714808 40.4059,-17.387695 40.4059,0.67287 v 148.41206 h 37.74176 V 101.46203 c 0,-16.539224 41.73263,-17.212093 41.73263,0.67287 z M 567.18842,148.46274 v 564.66743 c 0,50.47602 -89.11852,49.72869 -89.11852,0 V 489.08345 l -54.27879,-0.37686 -0.93976,-286.12428 C 422.59005,123.0237 567.18842,69.172998 567.18842,148.46274 Z"
   id="path2"
   style="fill:#000000;fill-opacity:1;stroke-width:1.57953"
   sodipodi:nodetypes="ccsscsscccssccsccsssccss" /></svg>
