<?xml version="1.0" encoding="UTF-8" standalone="no"?>
<svg
   version="1.1"
   x="0px"
   y="0px"
   viewBox="0 0 743.72882 1203.3816"
   enable-background="new 0 0 1000 1000"
   xml:space="preserve"
   id="svg8"
   width="743.72882"
   height="1203.3816"
   sodipodi:docname="viaPoint-hotel.svg"
   inkscape:version="1.1.2 (0a00cf5339, 2022-02-04)"
   xmlns:inkscape="http://www.inkscape.org/namespaces/inkscape"
   xmlns:sodipodi="http://sodipodi.sourceforge.net/DTD/sodipodi-0.dtd"
   xmlns="http://www.w3.org/2000/svg"
   xmlns:svg="http://www.w3.org/2000/svg"
   xmlns:rdf="http://www.w3.org/1999/02/22-rdf-syntax-ns#"
   xmlns:cc="http://creativecommons.org/ns#"
   xmlns:dc="http://purl.org/dc/elements/1.1/"><sodipodi:namedview
   id="namedview7"
   pagecolor="#ffffff"
   bordercolor="#666666"
   borderopacity="1.0"
   inkscape:pageshadow="2"
   inkscape:pageopacity="0.0"
   inkscape:pagecheckerboard="0"
   showgrid="false"
   inkscape:zoom="0.56673627"
   inkscape:cx="329.95947"
   inkscape:cy="601.6908"
   inkscape:window-width="1920"
   inkscape:window-height="1020"
   inkscape:window-x="0"
   inkscape:window-y="31"
   inkscape:window-maximized="1"
   inkscape:current-layer="svg8" /><metadata
   id="metadata24"><rdf:RDF><cc:Work
       rdf:about=""><dc:format>image/svg+xml</dc:format><dc:type
         rdf:resource="http://purl.org/dc/dcmitype/StillImage" /></cc:Work></rdf:RDF></metadata>
<defs
   id="defs12" />
<path
   id="path4"
   d="m 370.59322,-1.6949153 c -212.3,0 -367.2033895,121.9970053 -367.2033895,383.7737053 0,121.19369 363.3692295,829.79491 367.2033895,821.10301 0,0 373.13559,-695.82504 373.13559,-821.10301 0,-261.7767 -160.83559,-383.7737053 -373.13559,-383.7737053 z"
   style="fill:#000000;fill-opacity:0.8392157;stroke-width:1.11042821" />
<path
   id="hotel"
   d="m 88.830808,207.35848 c -11.689506,0 -21.10034,9.41083 -21.10034,21.10034 v 21.10034 168.80199 42.20067 21.10034 63.30102 h 50.200682 v -68.40136 h 498.40668 v 47.30139 21.09997 h 21.10071 27.09996 v -21.09997 -63.30139 -42.20067 -84.401 -21.10034 c 0,-11.68951 -15.41082,-21.10035 -27.09996,-21.10035 -11.68987,0 -21.10071,9.41084 -21.10071,21.10035 v 21.10034 84.401 H 117.93115 V 249.55916 228.45882 c 0,-11.68951 -17.41084,-21.10034 -29.100342,-21.10034 z m 126.601662,42.20068 c -34.95995,0 -63.30102,28.34069 -63.30102,63.30065 0,34.95995 28.34107,63.30102 63.30102,63.30102 34.95997,0 63.30102,-28.34107 63.30102,-63.30102 0,-34.95996 -28.34105,-63.30065 -63.30102,-63.30065 z m 105.50134,42.2003 v 84.40137 h 253.20334 c 0,-42.20068 -43.72681,-84.40137 -84.40061,-84.40137 z"
   style="fill:#ffffff;fill-opacity:1;stroke-width:42.2007"
   sodipodi:nodetypes="ssccccccccccccccccsssccccssssssscccsc" /></svg>
