<?xml version="1.0" encoding="UTF-8" standalone="no"?>
<svg
   version="1.1"
   x="0px"
   y="0px"
   viewBox="0 0 743.72882 1203.3816"
   enable-background="new 0 0 1000 1000"
   xml:space="preserve"
   id="svg8"
   width="743.72882"
   height="1203.3816"
   xmlns="http://www.w3.org/2000/svg"
   xmlns:svg="http://www.w3.org/2000/svg"
   xmlns:rdf="http://www.w3.org/1999/02/22-rdf-syntax-ns#"
   xmlns:cc="http://creativecommons.org/ns#"
   xmlns:dc="http://purl.org/dc/elements/1.1/"><metadata
   id="metadata24"><rdf:RDF><cc:Work
       rdf:about=""><dc:format>image/svg+xml</dc:format><dc:type
         rdf:resource="http://purl.org/dc/dcmitype/StillImage" /></cc:Work></rdf:RDF></metadata>
<defs
   id="defs12" />
<path
   id="path4"
   d="m 370.59322,-1.6949153 c -212.3,0 -367.2033895,121.9970053 -367.2033895,383.7737053 0,121.19369 363.3692295,829.79491 367.2033895,821.10301 0,0 373.13559,-695.82504 373.13559,-821.10301 0,-261.7767 -160.83559,-383.7737053 -373.13559,-383.7737053 z"
   style="fill:#aaaaaa;fill-opacity:0.94117647;stroke-width:1.11042821" />
<path
   style="fill:#00000f;fill-opacity:1;stroke:none;stroke-width:33.0759"
   id="bar"
   d="M 74.471488,149.22026 216.82778,402.8263 v 169.07027 c 0,0 -116.47325,42.26767 -116.47325,84.53535 H 359.1845 c 0,-42.26768 -116.47368,-84.53535 -116.47368,-84.53535 V 402.8263 L 385.06754,149.22026 Z" /><path
   style="fill:#00000f;fill-opacity:1;stroke:none;stroke-width:25.5436"
   id="cafe"
   d="M 420.07576,149.22026 V 320.1903 c 0,56.99043 45.79569,85.48523 103.03998,85.48523 57.24472,0 103.0404,-28.4948 103.0404,-85.48523 h 45.79527 c 22.89806,0 45.79569,-28.4948 45.79569,-56.99002 v -28.49479 c 0,-28.49522 -22.89763,-56.99043 -45.79569,-56.99043 h -45.79527 v -28.4948 z m 206.08038,64.11371 h 40.07118 c 15.29059,0 22.89763,16.03789 22.89763,35.61892 0,19.58061 -8.88896,35.61891 -22.89763,35.61891 H 626.15614 Z M 397.1777,434.17074 c 0,28.4948 22.89806,56.99002 45.79569,56.99002 h 160.2847 c 22.89805,0 45.79569,-28.49522 45.79569,-56.99002 z" /></svg>
