<?xml version="1.0" encoding="UTF-8" standalone="no"?>
<svg
   xmlns:dc="http://purl.org/dc/elements/1.1/"
   xmlns:cc="http://creativecommons.org/ns#"
   xmlns:rdf="http://www.w3.org/1999/02/22-rdf-syntax-ns#"
   xmlns:svg="http://www.w3.org/2000/svg"
   xmlns="http://www.w3.org/2000/svg"
   xmlns:xlink="http://www.w3.org/1999/xlink"
   version="1.0"
   width="580"
   height="580"
   id="svg2">
  <metadata
     id="metadata2975">
    <rdf:RDF>
      <cc:Work
         rdf:about="">
        <dc:format>image/svg+xml</dc:format>
        <dc:type
           rdf:resource="http://purl.org/dc/dcmitype/StillImage" />
        <cc:license
           rdf:resource="http://web.resource.org/cc/PublicDomain" />
        <dc:language>en</dc:language>
        <dc:title></dc:title>
      </cc:Work>
    </rdf:RDF>
  </metadata>
  <defs
     id="defs4" />
  <path
     style="fill:#ffffff;fill-opacity:1;stroke:#ffffff;stroke-width:14;stroke-miterlimit:4;stroke-dasharray:none;stroke-opacity:1;stroke-linecap:round;stroke-linejoin:round"
     d="M 430.21598,-99.780267 C 429.63845,-99.13713 409.23804,-153.72282 393.21799,-219.91851 C 389.56622,-235.0078 363.06833,-312.81613 428.92263,-312.77998 C 496.31132,-312.74299 469.60677,-233.99105 464.59087,-216.0945 C 446.91246,-153.01857 430.79351,-100.4234 430.21598,-99.780267 z"
     id="path6015" />
  <use
     x="0"
     y="0"
     xlink:href="#path6015"
     id="use6037"
     transform="matrix(0.8660254,-0.5,0.5,0.8660254,456.89843,297.20022)"
     width="580"
     height="580" />
  <path
     style="opacity:1;fill:#000000;fill-opacity:1;fill-rule:nonzero;stroke:#000000;stroke-width:1.53439152;stroke-linecap:square;stroke-linejoin:round;stroke-miterlimit:4;stroke-dasharray:none;stroke-opacity:1"
     d="m 389.74905,509.13674 c -4.36539,-2.0807 -10.86823,-7.19196 -15.00796,-11.79634 -13.04709,-14.5115 -16.85349,-25.02479 -34.1418,-94.29953 -8.66632,-34.7262 -16.08868,-66.32204 -16.49413,-70.21296 -0.76242,-7.3166 0.73622,-10.42311 5.02831,-10.42311 3.7141,0 35.85229,28.28569 68.81079,60.56223 45.76972,44.82267 56.84657,60.3472 58.2465,81.6342 0.88815,13.50488 -2.44236,21.56448 -12.89124,31.19592 -16.10169,14.84202 -38.62628,20.45297 -53.55047,13.33959 z"
     id="path845" />
  <path
     style="opacity:1;fill:#000000;fill-opacity:1;fill-rule:nonzero;stroke:#000000;stroke-width:1.53439152;stroke-linecap:square;stroke-linejoin:round;stroke-miterlimit:4;stroke-dasharray:none;stroke-opacity:1"
     d="m 488.09947,329.37323 c -17.82368,-3.26566 -126.52938,-34.78326 -136.1046,-39.4615 -6.62738,-3.23799 -8.46951,-8.59284 -3.8133,-11.08477 10.29279,-5.50853 74.36271,-25.25664 115.41341,-35.57357 42.04439,-10.56667 64.61214,-9.01563 79.06155,5.43378 8.08367,8.08367 11.80991,18.67573 11.80464,33.55542 -0.008,21.35981 -7.23778,35.40199 -22.13881,42.99692 -7.47135,3.80809 -10.85574,4.53389 -23.01587,4.9359 -7.84107,0.25922 -17.38422,-0.10176 -21.20702,-0.80218 z m -130.3775,-50.72505 c 0,-0.84391 -0.30449,-1.53439 -0.67664,-1.53439 -0.37215,0 -1.10338,0.69048 -1.62495,1.53439 -0.52157,0.84392 -0.21708,1.53439 0.67664,1.53439 0.89372,0 1.62495,-0.69047 1.62495,-1.53439 z"
     id="path847" />
  <path
     style="opacity:1;fill:#000000;fill-opacity:1;fill-rule:nonzero;stroke:#000000;stroke-width:1.53439152;stroke-linecap:square;stroke-linejoin:round;stroke-miterlimit:4;stroke-dasharray:none;stroke-opacity:1"
     d="m 326.41457,239.58719 c -2.88691,-2.88691 -2.77478,-3.95486 3.8478,-36.64701 9.17602,-45.29718 25.42739,-103.88338 33.28826,-120.004233 14.87226,-30.499613 37.11462,-39.924398 63.50625,-26.909587 19.00891,9.374082 29.42049,23.265111 29.63384,39.53716 0.26745,20.39785 -9.43428,35.23624 -47.70569,72.96387 -45.41356,44.76829 -76.47347,73.57052 -79.33738,73.57052 -0.3973,0 -1.85218,-1.12982 -3.23308,-2.51072 z m 3.05872,-11.2988 c 0.52157,-0.84392 0.21708,-1.53439 -0.67664,-1.53439 -0.89372,0 -1.62495,0.69047 -1.62495,1.53439 0,0.84392 0.30449,1.53439 0.67664,1.53439 0.37216,0 1.10338,-0.69047 1.62495,-1.53439 z"
     id="path849" />
  <path
     style="opacity:1;fill:#000000;fill-opacity:1;fill-rule:nonzero;stroke:#000000;stroke-width:1.53439152;stroke-linecap:square;stroke-linejoin:round;stroke-miterlimit:4;stroke-dasharray:none;stroke-opacity:1"
     d="m 259.47864,238.20249 c -18.92223,-13.78976 -86.65883,-78.95504 -102.32762,-98.4432 -17.64915,-21.95126 -23.15291,-40.81468 -16.45275,-56.389626 8.31998,-19.340326 36.04795,-34.650807 56.00268,-30.922859 9.90201,1.849896 14.78569,4.808474 22.97801,13.920308 14.72659,16.379509 19.32168,29.926757 41.45613,122.220817 8.99222,37.4949 10.77156,48.87072 8.14256,52.05761 -2.21708,2.68754 -3.04057,2.48223 -9.79901,-2.44305 z"
     id="path851" />
  <path
     style="opacity:1;fill:#000000;fill-opacity:1;fill-rule:nonzero;stroke:#000000;stroke-width:1.53439152;stroke-linecap:square;stroke-linejoin:round;stroke-miterlimit:4;stroke-dasharray:none;stroke-opacity:1"
     d="m 77.07755,330.78879 c -23.010687,-4.83248 -34.514022,-19.64528 -34.533499,-44.46865 -0.01819,-23.18642 6.42436,-35.5304 22.823589,-43.73016 8.685492,-4.34282 10.204192,-4.59696 26.85169,-4.49327 19.78501,0.12324 20.16885,0.20797 83.62433,18.45976 49.02237,14.10037 68.00548,20.12611 72.5,23.01342 4.20272,2.69984 4.4896,7.62157 0.56662,9.72108 -5.7746,3.09047 -48.2359,16.96288 -74.99136,24.50021 -57.9379,16.32179 -80.88277,20.34908 -96.84137,16.99761 z"
     id="path853" />
  <path
     style="opacity:1;fill:#000000;fill-opacity:1;fill-rule:nonzero;stroke:#000000;stroke-width:1.53439152;stroke-linecap:square;stroke-linejoin:round;stroke-miterlimit:4;stroke-dasharray:none;stroke-opacity:1"
     d="m 173.63254,508.36405 c -33.71823,-14.1116 -44.31491,-38.61632 -29.16568,-67.44534 3.11932,-5.93607 9.67879,-15.52414 14.57661,-21.30682 8.12674,-9.59496 86.68778,-85.66888 97.51977,-94.43245 6.43704,-5.20785 12.12373,-4.86256 12.77008,0.7754 1.43742,12.53828 -24.48474,119.30293 -35.62013,146.70728 -7.29273,17.94753 -19.7132,32.20504 -32.10433,36.85269 -6.41172,2.40492 -20.90485,1.80876 -27.97632,-1.15076 z"
     id="path855" />
</svg>
