<?xml version="1.0" encoding="UTF-8" standalone="no"?>
<svg
   xmlns:dc="http://purl.org/dc/elements/1.1/"
   xmlns:cc="http://creativecommons.org/ns#"
   xmlns:rdf="http://www.w3.org/1999/02/22-rdf-syntax-ns#"
   xmlns:svg="http://www.w3.org/2000/svg"
   xmlns="http://www.w3.org/2000/svg"
   xmlns:sodipodi="http://sodipodi.sourceforge.net/DTD/sodipodi-0.dtd"
   xmlns:inkscape="http://www.inkscape.org/namespaces/inkscape"
   viewBox="0 0 523.5775 526.09377"
   height="526.09375"
   width="523.57751"
   xml:space="preserve"
   version="1.1"
   id="svg2"
   sodipodi:docname="whatsapp.svg"
   inkscape:version="0.92.5 (2060ec1f9f, 2020-04-08)"><sodipodi:namedview
     pagecolor="#ffffff"
     bordercolor="#666666"
     borderopacity="1"
     objecttolerance="10"
     gridtolerance="10"
     guidetolerance="10"
     inkscape:pageopacity="0"
     inkscape:pageshadow="2"
     inkscape:window-width="1250"
     inkscape:window-height="558"
     id="namedview17"
     showgrid="false"
     inkscape:zoom="0.44022151"
     inkscape:cx="-88.03513"
     inkscape:cy="263.04686"
     inkscape:window-x="0"
     inkscape:window-y="31"
     inkscape:window-maximized="0"
     inkscape:current-layer="svg2"
     fit-margin-top="0"
     fit-margin-left="0"
     fit-margin-right="0"
     fit-margin-bottom="0" /><metadata
     id="metadata8"><rdf:RDF><cc:Work
         rdf:about=""><dc:format>image/svg+xml</dc:format><dc:type
           rdf:resource="http://purl.org/dc/dcmitype/StillImage" /><dc:title></dc:title></cc:Work></rdf:RDF></metadata><defs
     id="defs6"><clipPath
       id="clipPath16"
       clipPathUnits="userSpaceOnUse"><path
         id="path18"
         d="M 0,1066.861 H 1280.244 V 0 H 0 Z"
         inkscape:connector-curvature="0" /></clipPath><clipPath
       id="clipPath28"
       clipPathUnits="userSpaceOnUse"><path
         id="path30"
         d="M 0,1066.861 H 1280.244 V 0 H 0 Z"
         inkscape:connector-curvature="0" /></clipPath></defs><rect
     style="fill:#25d366;fill-opacity:1;fill-rule:evenodd;stroke:#000000;stroke-width:1px;stroke-linecap:butt;stroke-linejoin:miter;stroke-opacity:1"
     id="rect4164"
     width="96.062607"
     height="84.761116"
     x="45.183754"
     y="389.97574" /><circle
     style="opacity:1;fill:#25d366;fill-opacity:1;fill-rule:evenodd;stroke:#ffffff;stroke-width:0;stroke-linecap:butt;stroke-linejoin:round;stroke-miterlimit:4;stroke-dasharray:none;stroke-opacity:1"
     id="path4162"
     cx="263.91623"
     cy="260.01981"
     r="258.88297" /><g
     id="g24"
     transform="matrix(1.25,0,0,-1.25,-538.489,926.80737)"><g
       id="g26"
       clip-path="url(#clipPath28)"><g
         id="g32"
         transform="translate(736.1802,489.2339)"><path
           inkscape:connector-curvature="0"
           d="m 0,0 c -5.211,2.608 -30.831,15.213 -35.608,16.954 -4.776,1.739 -8.25,2.607 -11.724,-2.608 -3.474,-5.216 -13.461,-16.955 -16.501,-20.433 -3.039,-3.477 -6.079,-3.914 -11.29,-1.304 -5.211,2.608 -22.002,8.11 -41.906,25.865 -15.491,13.818 -25.95,30.882 -28.989,36.099 -3.04,5.217 -0.325,8.037 2.284,10.635 2.345,2.335 5.212,6.087 7.817,9.13 2.606,3.042 3.474,5.217 5.211,8.693 1.737,3.479 0.869,6.521 -0.435,9.129 -1.302,2.608 -11.724,28.259 -16.066,38.694 -4.23,10.16 -8.526,8.784 -11.725,8.945 -3.036,0.151 -6.514,0.183 -9.987,0.183 -3.474,0 -9.12,-1.304 -13.897,-6.52 -4.776,-5.217 -18.238,-17.825 -18.238,-43.473 0,-25.651 18.672,-50.429 21.278,-53.907 2.606,-3.479 36.745,-56.113 89.021,-78.685 12.432,-5.37 22.139,-8.576 29.707,-10.977 12.483,-3.967 23.843,-3.407 32.822,-2.065 10.012,1.495 30.831,12.605 35.174,24.777 C 11.29,-18.693 11.29,-8.26 9.987,-6.087 8.685,-3.913 5.211,-2.609 0,0 m -95.082,-129.825 h -0.07 c -31.105,0.012 -61.613,8.369 -88.227,24.162 l -6.33,3.757 -65.606,-17.21 17.511,63.966 -4.121,6.559 c -17.352,27.598 -26.517,59.496 -26.503,92.25 0.038,95.573 77.8,173.329 173.415,173.329 46.3,-0.016 89.822,-18.07 122.551,-50.836 C 60.265,133.388 78.278,89.836 78.26,43.519 78.221,-52.062 0.46,-129.825 -95.082,-129.825 M 52.446,191.049 c -39.375,39.421 -91.739,61.14 -147.53,61.163 -114.953,0 -208.511,-93.552 -208.557,-208.54 -0.015,-36.758 9.588,-72.635 27.839,-104.264 l -29.587,-108.071 110.558,29.001 c 30.462,-16.615 64.759,-25.373 99.664,-25.384 h 0.085 10e-4 c 114.941,0 208.507,93.561 208.554,208.551 0.021,55.726 -21.652,108.124 -61.027,147.544"
           style="fill:#ffffff;fill-opacity:1;fill-rule:evenodd;stroke:none"
           id="path34" /></g></g></g></svg>