<?xml version="1.0" encoding="UTF-8" standalone="no"?>
<!-- Created with Inkscape (http://www.inkscape.org/) -->

<svg
   xmlns:dc="http://purl.org/dc/elements/1.1/"
   xmlns:cc="http://creativecommons.org/ns#"
   xmlns:rdf="http://www.w3.org/1999/02/22-rdf-syntax-ns#"
   xmlns:svg="http://www.w3.org/2000/svg"
   xmlns="http://www.w3.org/2000/svg"
   version="1.1"
   width="100%"
   height="100%"
   viewBox="0 0 1700 1700"
   id="svg2">
  <metadata
     id="metadata10">
    <rdf:RDF>
      <cc:Work
         rdf:about="">
        <dc:format>image/svg+xml</dc:format>
        <dc:type
           rdf:resource="http://purl.org/dc/dcmitype/StillImage" />
        <dc:title></dc:title>
      </cc:Work>
    </rdf:RDF>
  </metadata>
  <defs
     id="defs8" />
  <path
     d="m 560.95,1412.7 h 74.09 l 247.37,-479.88 203.5,479.88 h 71.33 l 422.78,-972.73 c 23.7,-54.57 69.9,-87.34 119,-94.76 v -57.933 h -341.86 v 57.953 c 45.36,10.09 93.51,27.09 114.92,74.961 l -310.44,716.06 c -56.12,-119.35 -113.66,-249.77 -168.58,-379.92 56.685,-120.43 102.98,-232.29 172.52,-342.22 40.656,-64.68 106.63,-66.2 140.63,-69.38 v -57.45 h -363.4 v 57.45 c 45.34,0.045 139.69,4.078 97.62,92.49 L 935.04,658.811 823.41,412.321 c -17.379,-38.38 16.38,-63.95 71.49,-66.997 l -0.405,-57.993 h -408.98 v 57.45 c 48.728,1.601 117.43,1.34 142.79,42.655 78.09,143.45 130.3,292.46 201.49,438.72 l -184.22,344.49 -309.64,-711.78 c -34.892,-80.21 47.945,-106.05 101.76,-112.75 L 437.09,287.322 H 1.03 v 57.45 c 60.21,19.908 137.88,109.48 159.56,154.81 162.89,340.7 244.91,569.12 400.39,913.18 z"
     id="path4"
     style="fill:#838383;fill-opacity:1" />
</svg>
