<?xml version="1.0" encoding="UTF-8" standalone="no"?>
<svg
   xmlns:dc="http://purl.org/dc/elements/1.1/"
   xmlns:cc="http://creativecommons.org/ns#"
   xmlns:rdf="http://www.w3.org/1999/02/22-rdf-syntax-ns#"
   xmlns:svg="http://www.w3.org/2000/svg"
   xmlns="http://www.w3.org/2000/svg"
   id="svg4"
   viewBox="0 0 8 8"
   data-icon="wrench"
   height="8"
   width="8"
   version="1.1">
  <metadata
     id="metadata10">
    <rdf:RDF>
      <cc:Work
         rdf:about="">
        <dc:format>image/svg+xml</dc:format>
        <dc:type
           rdf:resource="http://purl.org/dc/dcmitype/StillImage" />
        <dc:title></dc:title>
      </cc:Work>
    </rdf:RDF>
  </metadata>
  <defs
     id="defs8" />
  <path
     style="fill:#aaaaaa;fill-opacity:0.94117647;"
     id="path2"
     d="M5.5 0c-1.38 0-2.5 1.12-2.5 2.5 0 .32.078.626.188.906l-2.906 2.875c-.39.39-.39 1.016 0 1.406.2.2.459.313.719.313.26 0 .519-.091.719-.281l2.875-2.875c.28.1.586.156.906.156 1.38 0 2.5-1.12 2.5-2.5 0-.16-.032-.297-.063-.438l-.938.938h-2v-2l.938-.938c-.14-.03-.277-.062-.438-.063zm-4.5 6.5c.28 0 .5.22.5.5s-.22.5-.5.5-.5-.22-.5-.5.22-.5.5-.5z" />
</svg>
